<?xml version="1.0" encoding="UTF-8"?><svg id="a" xmlns="http://www.w3.org/2000/svg" viewBox="0 0 39.68651 39.82751"><defs><style>.b{fill:#fff;}.c{fill:#dbdada;}.d{fill:#878787;}.e{fill:none;stroke:#b3b3b3;}.f{fill:#07723d;}</style></defs><rect class="b" x=".8" y=".34249" width="38.40001" height="39.00002"/><rect class="f" x=".488" y="16.82751" width="22.434" height="14.144"/><polygon class="c" points="25.4508 16.8272 25.4508 33.49921 9.8568 33.49921 9.8568 39.3402 39.19778 39.3402 39.19778 16.8272 25.4508 16.8272"/><rect class="e" x=".5" y=".64251" width="38.685" height="38.685"/><path class="d" d="M2.02405,2.81249h1.1748c.52927,0,.91795,.08984,1.16602,.26953,.24802,.17972,.37207,.45117,.37207,.81445,0,.24805-.07571,.45459-.22705,.61963-.15138,.16507-.37257,.271-.66357,.31787v.01758c.34177,.05081,.59326,.15869,.75439,.32373,.16113,.16507,.2417,.39505,.2417,.68994,0,.39453-.13087,.69827-.39258,.91113-.26175,.21289-.63281,.31934-1.11328,.31934h-1.3125V2.81249Zm.29883,1.90723h.94336c.40233,0,.69479-.06689,.87744-.20068,.1826-.13376,.27393-.34323,.27393-.62842,0-.28516-.10304-.49219-.30908-.62109-.20609-.12891-.5132-.19336-.92139-.19336h-.86426v1.64355Zm0,.26367v1.84863h1.00781c.79294,0,1.18945-.32227,1.18945-.9668,0-.58786-.41798-.88184-1.25391-.88184h-.94336Zm5.80399,2.1123h-2.34082V2.81249h2.34082v.27539h-2.04199v1.62012h1.92773v.27539h-1.92773v1.83691h2.04199v.27539Zm3.58154,0h-2.97656v-.22266l2.50781-3.7793h-2.39355v-.28125h2.79492v.22266l-2.51367,3.7793h2.58105v.28125Zm1.1445,0h-.29883V2.81249h2.34668v.27539h-2.04785v1.81641h1.93359v.27832h-1.93359v1.91309Zm4.77567-1.51172h-1.74023l-.59766,1.51172h-.33105l1.72266-4.30078h.19043l1.6875,4.30078h-.33691l-.59473-1.51172Zm-1.63184-.26953h1.53223l-.58301-1.54395c-.04884-.12109-.10744-.28903-.17578-.50391-.05273,.1875-.11037,.35742-.17285,.50977l-.60059,1.53809Zm3.16937,1.78125V2.81249h.29883V6.81445h2.04199v.28125h-2.34082Zm5.8905-3.84082c-.31252-.15625-.64064-.23438-.98438-.23438-.53714,0-.95998,.17188-1.26855,.51562-.30862,.34378-.46289,.81445-.46289,1.41211,0,.61133,.14548,1.08594,.43652,1.42383,.291,.33792,.70702,.50684,1.24805,.50684,.35934,0,.68944-.04587,.99023-.1377v.26367c-.28322,.09961-.63675,.14941-1.06055,.14941-.60159,0-1.0752-.19434-1.4209-.58301-.3457-.38864-.51855-.93164-.51855-1.62891,0-.43552,.08249-.81931,.24756-1.15137,.16502-.33203,.40233-.58838,.71191-.76904,.30954-.18063,.66943-.271,1.07959-.271,.41794,0,.79198,.07812,1.12207,.23438l-.12012,.26953h0Zm4.5141,1.69336c0,.67969-.16992,1.21729-.50977,1.61279s-.80859,.59326-1.40625,.59326c-.59573,0-1.06348-.19775-1.40332-.59326s-.50977-.93503-.50977-1.61865c0-.68161,.17139-1.21826,.51416-1.60986,.34277-.39157,.81102-.5874,1.40479-.5874,.59766,0,1.0654,.19678,1.40332,.59033,.33788,.39359,.50684,.93118,.50684,1.61279Zm-3.50391,0c0,.61331,.13669,1.0874,.41016,1.42236,.27342,.33499,.666,.50244,1.17773,.50244,.51562,0,.90967-.16599,1.18213-.49805,.27246-.33203,.40869-.80759,.40869-1.42676,0-.61716-.13623-1.0903-.40869-1.41943-.27246-.3291-.66458-.49365-1.17627-.49365-.50977,0-.90285,.16602-1.1792,.49805-.2764,.33206-.41455,.80374-.41455,1.41504Zm7.01862-2.13574h.3252l-1.60254,4.2832h-.26367l-1.59668-4.2832h.31934l1.07812,2.91504c.16406,.43945,.27438,.76953,.33105,.99023,.03905-.14648,.11618-.37399,.23145-.68262l1.17773-3.22266Zm1.9151,2.34375l1.25391-2.34375h.32227l-1.42676,2.62793v1.65527h-.30762v-1.63184l-1.43262-2.65137h.34277l1.24805,2.34375Zm-.31934-2.7334c.14255-.15427,.28368-.32178,.42334-.50244,.13962-.18063,.23483-.31787,.28564-.41162h.41309v.0498c-.07031,.10156-.18997,.23633-.35889,.4043-.16896,.168-.355,.33691-.55811,.50684h-.20508v-.04688Z"/><path class="d" d="M3.92542,12.26659c0,.28519-.1084,.50439-.3252,.65771-.2168,.15335-.52441,.22998-.92285,.22998-.42581,0-.76369-.06543-1.01367-.19629v-.31348c.3203,.16016,.65817,.24023,1.01367,.24023,.31444,0,.55321-.05225,.71631-.15674,.16306-.10446,.24463-.24362,.24463-.41748,0-.16013-.06496-.29489-.19482-.4043-.12991-.10938-.34328-.2168-.64014-.32227-.31837-.11523-.54199-.21432-.6709-.29736-.12891-.08301-.22609-.17676-.2915-.28125-.06546-.10446-.09814-.2319-.09814-.38232,0-.23828,.10007-.42673,.30029-.56543,.20018-.13867,.47997-.20801,.83936-.20801,.34373,0,.66989,.06445,.97852,.19336l-.1084,.26367c-.31252-.12891-.60255-.19336-.87012-.19336-.25978,0-.46582,.04297-.61816,.12891-.15234,.08597-.22852,.20508-.22852,.35742,0,.16602,.05905,.29883,.17725,.39844,.11815,.09961,.34909,.21094,.69287,.33398,.28711,.10355,.49608,.19678,.62695,.27979,.13083,.08304,.22897,.17725,.29443,.28271,.06541,.10547,.09814,.22952,.09814,.37207Zm.28821-2.35547h.29883l.67383,1.78711c.20508,.54886,.33495,.91895,.38965,1.11035h.01758c.08203-.25195,.21579-.62793,.40137-1.12793l.67383-1.76953h.29883l-1.42676,3.7002c-.11526,.30075-.21194,.50391-.29004,.60938-.07814,.10547-.16946,.18457-.27393,.2373-.10451,.05273-.23099,.0791-.37939,.0791-.11133,0-.23538-.02051-.37207-.06152v-.25195c.11325,.03122,.23534,.04688,.36621,.04688,.09961,0,.1875-.02344,.26367-.07031s.14502-.11966,.20654-.21826c.06152-.09863,.1328-.25488,.21387-.46875,.08102-.21387,.1333-.35303,.15674-.41748l-1.21875-3.18457Zm5.26181,2.35547c0,.28519-.1084,.50439-.3252,.65771-.2168,.15335-.52441,.22998-.92285,.22998-.42581,0-.76369-.06543-1.01367-.19629v-.31348c.3203,.16016,.65817,.24023,1.01367,.24023,.31444,0,.55321-.05225,.71631-.15674,.16306-.10446,.24463-.24362,.24463-.41748,0-.16013-.06496-.29489-.19482-.4043-.12991-.10938-.34328-.2168-.64014-.32227-.31837-.11523-.54199-.21432-.6709-.29736-.12891-.08301-.22609-.17676-.2915-.28125-.06546-.10446-.09814-.2319-.09814-.38232,0-.23828,.10007-.42673,.30029-.56543,.20018-.13867,.47997-.20801,.83936-.20801,.34373,0,.66989,.06445,.97852,.19336l-.1084,.26367c-.31252-.12891-.60255-.19336-.87012-.19336-.25978,0-.46582,.04297-.61816,.12891-.15234,.08597-.22852,.20508-.22852,.35742,0,.16602,.05905,.29883,.17725,.39844,.11815,.09961,.34909,.21094,.69287,.33398,.28711,.10355,.49608,.19678,.62695,.27979,.13083,.08304,.22897,.17725,.29443,.28271,.06541,.10547,.09814,.22952,.09814,.37207Zm1.66223,.62988c.18356,0,.34373-.01562,.48047-.04688v.23438c-.14062,.04688-.30276,.07031-.48633,.07031-.28125,0-.4888-.07516-.62256-.22559-.1338-.15039-.20068-.38672-.20068-.70898v-2.05664h-.47168v-.16992l.47168-.13184,.14648-.7207h.14941v.77051h.93457v.25195h-.93457v2.01562c0,.24417,.04294,.4248,.12891,.54199,.08592,.11719,.22069,.17578,.4043,.17578Zm2.45535,.25781c-.46289,0-.82375-.14255-1.08252-.42773-.25882-.28516-.38818-.68454-.38818-1.19824,0-.50781,.12497-.91452,.375-1.22021,.24998-.30566,.5869-.4585,1.01074-.4585,.375,0,.6709,.13086,.8877,.39258,.2168,.26175,.3252,.61719,.3252,1.06641v.23438h-2.29395c.00389,.43753,.10593,.77151,.30615,1.00195,.20018,.23047,.48679,.3457,.85986,.3457,.18164,0,.34131-.0127,.479-.03809,.1377-.02536,.31201-.08008,.52295-.16406v.26367c-.17972,.07812-.3457,.13138-.49805,.15967s-.32034,.04248-.50391,.04248Zm-.08496-3.04688c-.30666,0-.55275,.10107-.73828,.30322-.18558,.20215-.29398,.49365-.3252,.87451h1.96875c0-.36914-.08011-.65771-.24023-.86572-.16017-.20801-.38187-.31201-.66504-.31201Zm-.41016-.69434c.14255-.15427,.28368-.32178,.42334-.50244,.13962-.18063,.23483-.31787,.28564-.41162h.41309v.0498c-.07031,.10156-.18997,.23633-.35889,.4043-.16896,.168-.355,.33691-.55811,.50684h-.20508v-.04688Zm6.48148,3.68262v-2.08887c0-.31055-.06056-.53711-.18164-.67969-.12112-.14255-.30666-.21387-.55664-.21387-.3262,0-.5674,.08984-.72363,.26953-.15628,.17972-.23438,.46191-.23438,.84668v1.86621h-.2959v-2.17676c0-.53711-.24609-.80566-.73828-.80566-.33398,0-.57715,.09717-.72949,.2915-.15234,.19437-.22852,.50537-.22852,.93311v1.75781h-.29004v-3.18457h.24023l.06152,.43652h.01758c.08789-.1582,.21286-.28076,.375-.36768,.16209-.08688,.34081-.13037,.53613-.13037,.50194,0,.8242,.18851,.9668,.56543h.01172c.1035-.18164,.24266-.32126,.41748-.41895,.17477-.09766,.37354-.14648,.59619-.14648,.34763,0,.60837,.09277,.78223,.27832,.17381,.18558,.26074,.48047,.26074,.88477v2.08301h-.28711Z"/></svg>