<?xml version="1.0" encoding="UTF-8"?><svg id="a" xmlns="http://www.w3.org/2000/svg" viewBox="0 0 39.68651 39.82751"><defs><style>.b{fill:#dbdada;}.c{fill:#878787;}.d{fill:none;stroke:#b3b3b3;}.e{fill:#b3b3b3;}</style></defs><rect class="e" x=".48951" y="13.22302" width="22.434" height="14.14398"/><polygon class="b" points="25.45211 13.22345 25.45211 32.4585 25.45211 39.19647 39.19911 39.19647 39.19911 13.22345 25.45211 13.22345"/><rect class="e" x="25.45251" y="13.22302" width="5.238" height="14.14398"/><rect class="d" x=".5015" y=".5" width="38.685" height="38.685"/><g><path class="c" d="M5.26979,6.95236h-.30176v-2.10645H2.46608v2.10645h-.29883V2.66916h.29883v1.90137h2.50195v-1.90137h.30176V6.95236Z"/><path class="c" d="M8.54518,5.44064h-1.74023l-.59766,1.51172h-.33105l1.72266-4.30078h.19043l1.6875,4.30078h-.33691l-.59473-1.51172Zm-1.63184-.26953h1.53223l-.58301-1.54395c-.04883-.12109-.10742-.28906-.17578-.50391-.05273,.1875-.11035,.35742-.17285,.50977l-.60059,1.53809Z"/><path class="c" d="M10.38209,5.08615v1.86621h-.29883V2.66916h1.01953c.53125,0,.92383,.09814,1.17773,.29443s.38086,.4917,.38086,.88623c0,.28711-.07568,.5293-.22705,.72656s-.38135,.33887-.68994,.4248l1.16309,1.95117h-.35742l-1.10449-1.86621h-1.06348Zm0-.25781h.81738c.36133,0,.6416-.08057,.84082-.2417s.29883-.39893,.29883-.71338c0-.32617-.09766-.56348-.29297-.71191s-.51367-.22266-.95508-.22266h-.70898v1.88965Z"/><path class="c" d="M15.53248,6.95236l-1.59668-3.95508h-.02344c.01562,.24219,.02344,.49023,.02344,.74414v3.21094h-.28711V2.66916h.46289l1.51758,3.76758h.01758l1.51758-3.76758h.45117V6.95236h-.30176V3.70627c0-.22656,.01172-.46094,.03516-.70312h-.02344l-1.60254,3.94922h-.19043Z"/><path class="c" d="M22.42604,4.8049c0,.67969-.16992,1.21729-.50977,1.61279s-.80859,.59326-1.40625,.59326c-.5957,0-1.06348-.19775-1.40332-.59326s-.50977-.93506-.50977-1.61865c0-.68164,.17139-1.21826,.51416-1.60986s.81104-.5874,1.40479-.5874c.59766,0,1.06543,.19678,1.40332,.59033s.50684,.93115,.50684,1.61279Zm-3.50391,0c0,.61328,.13672,1.0874,.41016,1.42236s.66602,.50244,1.17773,.50244c.51562,0,.91016-.16602,1.18262-.49805s.4082-.80762,.4082-1.42676c0-.61719-.13574-1.09033-.4082-1.41943s-.66504-.49365-1.17676-.49365c-.50977,0-.90283,.16602-1.1792,.49805s-.41455,.80371-.41455,1.41504Z"/><path class="c" d="M26.52467,6.95236h-.30176l-2.53711-3.80273h-.02344c.02344,.45312,.03516,.79492,.03516,1.02539v2.77734h-.28711V2.66916h.29883l2.53418,3.79688h.01758c-.01758-.35156-.02637-.68555-.02637-1.00195V2.66916h.29004V6.95236Z"/><path class="c" d="M28.72194,5.01291l1.25391-2.34375h.32227l-1.42676,2.62793v1.65527h-.30762v-1.63184l-1.43262-2.65137h.34277l1.24805,2.34375Z"/></g></svg>