<?xml version="1.0" encoding="UTF-8"?><svg id="a" xmlns="http://www.w3.org/2000/svg" viewBox="0 0 39.685 39.68549"><defs><style>.b{fill:#fff;}.c{fill:#8d5c4e;}.d{fill:#dbdada;}.e{fill:#878787;}.f{fill:none;stroke:#b3b3b3;}</style></defs><rect class="b" x=".5" y=".5" width="38.685" height="38.685"/><rect class="f" x=".5" y=".5" width="38.685" height="38.685"/><path class="e" d="M4.38801,5.8483c0,.35742-.13138,.64062-.39404,.84961-.26271,.20901-.61185,.31348-1.04736,.31348-.52345,0-.92482-.05762-1.2041-.17285v-.29883c.30858,.13086,.70212,.19629,1.18066,.19629,.35156,0,.63034-.08057,.83643-.2417,.20604-.16113,.30908-.37253,.30908-.63428,0-.16211-.03419-.29636-.10254-.40283-.06839-.10645-.17972-.20361-.33398-.2915-.15431-.08789-.38086-.18262-.67969-.28418-.43753-.15039-.73975-.31299-.90674-.48779-.16699-.17477-.25049-.40768-.25049-.69873,0-.32031,.12547-.58154,.37646-.78369,.25095-.20215,.57372-.30322,.96826-.30322,.40233,0,.78026,.07617,1.13379,.22852l-.1084,.25781c-.3555-.14841-.69534-.22266-1.01953-.22266-.31641,0-.56836,.07324-.75586,.21973s-.28125,.3457-.28125,.59766c0,.1582,.02879,.28812,.08643,.38965,.05759,.10156,.15184,.1929,.28271,.27393,.13083,.08105,.35545,.17825,.67383,.2915,.33398,.11526,.58493,.22705,.75293,.33545,.16795,.1084,.2905,.23145,.36768,.36914,.07713,.1377,.11572,.30423,.11572,.49951Zm1.89011-.83496l1.25391-2.34375h.32227l-1.42676,2.62793v1.65527h-.30762v-1.63184l-1.43262-2.65137h.34277l1.24805,2.34375Zm4.54788,.83496c0,.35742-.13138,.64062-.39404,.84961-.26271,.20901-.61185,.31348-1.04736,.31348-.52345,0-.92482-.05762-1.2041-.17285v-.29883c.30858,.13086,.70212,.19629,1.18066,.19629,.35156,0,.63034-.08057,.83643-.2417,.20604-.16113,.30908-.37253,.30908-.63428,0-.16211-.03419-.29636-.10254-.40283-.06839-.10645-.17972-.20361-.33398-.2915-.15431-.08789-.38086-.18262-.67969-.28418-.43753-.15039-.73975-.31299-.90674-.48779-.16699-.17477-.25049-.40768-.25049-.69873,0-.32031,.12547-.58154,.37646-.78369,.25095-.20215,.57372-.30322,.96826-.30322,.40233,0,.78026,.07617,1.13379,.22852l-.1084,.25781c-.3555-.14841-.69534-.22266-1.01953-.22266-.31641,0-.56836,.07324-.75586,.21973s-.28125,.3457-.28125,.59766c0,.1582,.02879,.28812,.08643,.38965,.05759,.10156,.15184,.1929,.28271,.27393,.13083,.08105,.35545,.17825,.67383,.2915,.33398,.11526,.58493,.22705,.75293,.33545,.16795,.1084,.2905,.23145,.36768,.36914,.07713,.1377,.11572,.30423,.11572,.49951Zm2.02194,1.10449h-.30176V2.95084h-1.3916v-.28125h3.08496v.28125h-1.3916V6.95279Zm4.36862,0h-2.34082V2.66959h2.34082v.27539h-2.04199v1.62012h1.92773v.27539h-1.92773v1.83691h2.04199v.27539Zm-1.59082-4.67285c.14255-.15427,.28368-.32178,.42334-.50244,.13962-.18063,.23483-.31787,.28564-.41162h.41309v.0498c-.07031,.10156-.18997,.23633-.35889,.4043-.16896,.168-.355,.33691-.55811,.50684h-.20508v-.04688Zm4.4458,4.67285l-1.59668-3.95508h-.02344c.01561,.24219,.02344,.49026,.02344,.74414v3.21094h-.28711V2.66959h.46289l1.51758,3.76758h.01758l1.51758-3.76758h.45117V6.95279h-.30176V3.7067c0-.22656,.01172-.46094,.03516-.70312h-.02344l-1.60254,3.94922h-.19043Z"/><path class="e" d="M2.32258,11.08658v1.86621h-.29883v-4.2832h1.01953c.53123,0,.92381,.09814,1.17773,.29443,.25388,.19629,.38086,.49173,.38086,.88623,0,.28711-.07571,.5293-.22705,.72656-.15138,.1973-.38136,.33887-.68994,.4248l1.16309,1.95117h-.35742l-1.10449-1.86621h-1.06348Zm0-.25781h.81738c.36131,0,.6416-.08057,.84082-.2417s.29883-.3989,.29883-.71338c0-.32617-.09769-.56348-.29297-.71191-.19533-.14841-.5137-.22266-.95508-.22266h-.70898v1.88965Zm5.60596,2.12402h-2.34082v-4.2832h2.34082v.27539h-2.04199v1.62012h1.92773v.27539h-1.92773v1.83691h2.04199v.27539Zm3.50244-4.2832h.3252l-1.60254,4.2832h-.26367l-1.59668-4.2832h.31934l1.07812,2.91504c.16406,.43945,.27438,.76953,.33105,.99023,.03905-.14648,.11618-.37399,.23145-.68262l1.17773-3.22266Zm3.27155,4.2832h-2.34082v-4.2832h2.34082v.27539h-2.04199v1.62012h1.92773v.27539h-1.92773v1.83691h2.04199v.27539Zm3.33545-1.10449c0,.35742-.13138,.64062-.39404,.84961-.26271,.20901-.61185,.31348-1.04736,.31348-.52345,0-.92482-.05762-1.2041-.17285v-.29883c.30858,.13086,.70212,.19629,1.18066,.19629,.35156,0,.63034-.08057,.83643-.2417,.20604-.16113,.30908-.37253,.30908-.63428,0-.16211-.03419-.29636-.10254-.40283-.06839-.10645-.17972-.20361-.33398-.2915-.15431-.08789-.38086-.18262-.67969-.28418-.43753-.15039-.73975-.31299-.90674-.48779-.16699-.17477-.25049-.40768-.25049-.69873,0-.32031,.12547-.58154,.37646-.78369,.25095-.20215,.57372-.30322,.96826-.30322,.40233,0,.78026,.07617,1.13379,.22852l-.1084,.25781c-.3555-.14841-.69534-.22266-1.01953-.22266-.31641,0-.56836,.07324-.75586,.21973s-.28125,.3457-.28125,.59766c0,.1582,.02879,.28812,.08643,.38965,.05759,.10156,.15184,.1929,.28271,.27393,.13083,.08105,.35545,.17825,.67383,.2915,.33398,.11526,.58493,.22705,.75293,.33545,.16795,.1084,.2905,.23145,.36768,.36914,.07713,.1377,.11572,.30423,.11572,.49951Z"/><polygon class="c" points="22.1922 25.4921 22.1922 16.68411 .9842 16.68411 .9842 23.7561 .9842 30.82812 11.9162 30.82812 11.9162 25.4921 22.1922 25.4921"/><polygon class="d" points="38.6666 30.82788 38.6666 16.6839 23.2836 16.6839 23.2836 26.50891 13.0216 26.50891 13.0216 30.82788 38.6666 30.82788"/></svg>