<?xml version="1.0" encoding="UTF-8"?><svg id="a" xmlns="http://www.w3.org/2000/svg" viewBox="0 0 320 66.88"><defs><style>.b,.c{fill:#00713c;}.c{fill-rule:evenodd;}</style></defs><path class="b" d="M2.67,2.73H82.01v61.45h-18.66V14.28H21.33v49.91H2.67V2.73ZM0,0V66.88H24.02V16.97H60.62l-27.2,10.66v39.25h51.29V0H0Z"/><path class="c" d="M103.7,22.35h13.47c2.88,0,4.94,1.07,6.49,3.36,1.33,1.92,1.96,4.21,1.96,7.23,0,7.71-3.51,11.44-10.48,11.44h-5.09v15.16h-6.35V22.35Zm6.35,5.53v10.96h4.1c1.59,0,2.91-.63,3.76-2.07,.59-1.07,.85-2.51,.85-4.46,0-1.81-.37-3.1-1.11-3.73-.7-.37-1.7-.7-2.99-.7h-4.61Zm156.05,18.78c0,11.33-6.6,13.61-11.55,13.61s-11.8-2.18-11.8-13.61v-12.06c0-11.55,6.86-12.95,12.03-12.95,4.72,0,11.44,1.51,11.44,12.95l-.11,12.06Zm-16.49-13.02v14.57c0,3.13,1.07,6.27,4.94,6.27s4.94-3.14,4.94-6.27v-14.57c0-2.99-.96-6.12-4.83-6.12-4.1,0-5.05,3.14-5.05,6.12m-97.73,13.02c0,11.33-6.6,13.61-11.55,13.61s-11.81-2.18-11.81-13.61v-12.06c0-11.55,6.86-12.95,12.03-12.95,4.72,0,11.44,1.51,11.44,12.95l-.11,12.06Zm-16.49-13.02v14.57c0,3.13,1.07,6.27,4.94,6.27s4.94-3.14,4.94-6.27v-14.57c0-2.99-.96-6.12-4.83-6.12-4.1,0-5.05,3.14-5.05,6.12m22.5-11.29h6.38v31.76h12.28v5.42h-18.67V22.35Zm16.08,19.26h11.44v5.42h-11.44v-5.42Zm31.25-7.71c1.07-11.88-13.98-6.49-5.42,.7,2.29,1.95,4.83,4.1,7.34,6.16,2.92,2.29,4.83,6.01,4.83,7.45v2.07c0,13.72-23.87,15.16-21.43-3.5h6.6c0,2.54-.22,4.35,1.22,6.64,1.7,2.14,4.8,2.03,6.27-.15,.96-1.44,.81-4.1-.15-5.42-1.81-3.73-6.23-4.91-9.85-8.78-2.43-2.51-4.1-3.98-4.1-8.56,0-9.11,10.81-10.92,16.6-7.45,3.02,1.81,4.1,5.05,4.1,9.74v1.11h-6.01Zm12.29-11.55h6.38v16.71h.11c.96-2.18,2.18-4.94,3.87-8.41,1.44-2.77,2.88-5.53,4.32-8.3h7.34l-8.67,16.12,9.04,21.07h-7.45l-6.16-14.46-2.4,4.1v10.37h-6.38V22.35Zm55.15,0h6.38l9.04,23.35V22.35h6.86V59.54h-6.75l-9.15-22.98v22.98h-6.38V22.35Zm28.78,0h18.56v5.53h-11.81v9.74h10.81v5.64h-10.81v10.85h11.81v5.42h-18.56V22.35Z"/></svg>