<?xml version="1.0" encoding="UTF-8"?><svg id="Layer_2" xmlns="http://www.w3.org/2000/svg" viewBox="0 0 39.685 29.27203"><defs><style>.cls-1{fill:#b1c90b;}</style></defs><g id="Layer_1-2"><g><rect class="cls-1" width="39.685" height="28.34598"/><g><path d="M4.48495,25.34235c0,.51562-.13965,.92188-.41699,1.21875-.2793,.29688-.66602,.44531-1.16211,.44531-.45703,0-.86133-.11475-1.21289-.34375v-1.125c.28906,.17188,.5332,.29297,.73438,.36328,.19922,.07031,.38281,.10547,.54883,.10547,.19922,0,.35156-.05078,.45898-.15234,.10547-.10156,.15918-.25244,.15918-.45312,0-.11182-.02344-.21143-.07031-.29883s-.11621-.17139-.20605-.25195c-.0918-.08057-.27637-.20947-.55566-.38672-.26172-.16406-.45801-.32178-.58887-.47266s-.23535-.32666-.31348-.52734-.11719-.43506-.11719-.70312c0-.50537,.12793-.90234,.38574-1.19141,.25586-.28906,.61133-.43359,1.06445-.43359,.22266,0,.43555,.03516,.63672,.10547,.20312,.07031,.41406,.16943,.63477,.29688l-.29297,.94141c-.22852-.125-.41797-.2124-.56641-.26172-.15039-.04932-.29688-.07422-.44141-.07422-.17188,0-.30371,.05322-.39551,.16016s-.1377,.24609-.1377,.41797c0,.10693,.01855,.19971,.05566,.2793s.0957,.15625,.17676,.23047,.27344,.20752,.57617,.40039c.40039,.25537,.6748,.51123,.82324,.76758s.22266,.5708,.22266,.94336Z"/><path d="M6.91367,26.92828h-.9082v-4.70312h-1.16309v-1.00781h3.23438v1.00781h-1.16309v4.70312Z"/><path d="M9.64413,24.73688v2.19141h-.9082v-5.71094h1.24805c.58203,0,1.0127,.14111,1.29199,.42383s.41895,.71143,.41895,1.28711c0,.33594-.06934,.63477-.20801,.89648s-.33496,.4668-.58887,.61523c.64453,1.28369,1.06445,2.11328,1.25977,2.48828h-1.00781l-1.02246-2.19141h-.4834Zm1.79297-5.25781v.10547c-.16406,.21875-.31445,.43701-.45312,.6543-.13672,.21729-.23633,.39111-.29688,.52148h-1.0459c-.05664-.12256-.1377-.26904-.24316-.43945s-.27441-.41602-.50684-.73633v-.10547h.59473c.28711,.24219,.51074,.47119,.6709,.6875,.16406-.22656,.39258-.45557,.68555-.6875h.59473Zm-1.79297,4.27344h.29297c.28711,0,.49902-.06396,.63574-.19141s.20508-.32812,.20508-.60156c0-.271-.07031-.46338-.20996-.57812s-.35547-.17188-.64844-.17188h-.27539v1.54297Z"/><path d="M12.64706,20.76031v-.10547c.33594-.521,.56543-.9126,.68848-1.17578h1.00195v.08203c-.10156,.13525-.27539,.33643-.51953,.60352-.24609,.26709-.4375,.46533-.57617,.5957h-.59473Zm.0498,6.16797v-5.71094h.9082v5.71094h-.9082Z"/><path d="M18.12851,26.92828h-1.03125l-1.12207-2.40625-.38379,.36719v2.03906h-.9082v-5.71094h.9082v2.61328l.35742-.67188,1.16016-1.94141h1.00781l-1.49414,2.52734,1.50586,3.18359Z"/><path d="M21.28964,26.92828l-.31055-1.35938h-1.56152l-.31055,1.35938h-.97852l1.51172-5.73438h1.11035l1.51758,5.73438h-.97852Zm-.52734-2.375c-.28711-1.23193-.44922-1.92822-.48535-2.08984s-.06152-.28906-.07715-.38281c-.06445,.3335-.24902,1.15771-.55371,2.47266h1.11621Z"/><path d="M26.60703,26.92828h-1.1543l-1.86328-4.32031h-.02637c.03711,.76318,.05566,1.30713,.05566,1.63281v2.6875h-.81152v-5.71094h1.14551l1.86035,4.27734h.02051c-.0293-.74219-.04395-1.26709-.04395-1.57422v-2.70312h.81738v5.71094Z"/><path d="M30.15195,26.92828h-2.4668v-5.71094h2.4668v.99219h-1.55859v1.25391h1.4502v.99219h-1.4502v1.47266h1.55859v1Zm-1.76367-6.16797v-.10547c.33594-.521,.56543-.9126,.68848-1.17578h1.00195v.08203c-.10156,.13525-.27539,.33643-.52051,.60352s-.43652,.46533-.5752,.5957h-.59473Z"/></g></g></g></svg>