<?xml version="1.0" encoding="UTF-8"?><svg id="Layer_2" xmlns="http://www.w3.org/2000/svg" viewBox="0 0 39.685 29.27264"><defs><style>.cls-1{fill:#fff;}.cls-2{fill:#d21c1e;}</style></defs><g id="Layer_1-2"><g><rect class="cls-2" width="39.685" height="28.34601"/><g><path class="cls-1" d="M4.42311,26.92889H1.95631v-5.71094h2.4668v.99219h-1.55859v1.25391h1.4502v.99219h-1.4502v1.47266h1.55859v1Z"/><path class="cls-1" d="M7.136,22.14374c-.3418,0-.60645,.17139-.79395,.51367s-.28125,.81982-.28125,1.43164c0,1.27344,.3584,1.91016,1.0752,1.91016,.30078,0,.66504-.1001,1.09277-.30078v1.01562c-.35156,.19531-.74414,.29297-1.17773,.29297-.62305,0-1.09961-.25195-1.42969-.75586s-.49512-1.22705-.49512-2.16992c0-.59375,.08105-1.11377,.24316-1.56055s.39502-.78906,.69873-1.02734,.65967-.35742,1.06787-.35742c.41602,0,.83398,.13428,1.25391,.40234l-.29297,.98438c-.16016-.10156-.32129-.18994-.4834-.26562s-.32129-.11328-.47754-.11328Z"/><path class="cls-1" d="M13.0276,24.06561c0,.94531-.17578,1.67188-.52734,2.17969s-.85547,.76172-1.51172,.76172-1.16016-.25391-1.51172-.76172-.52734-1.23682-.52734-2.1875,.17627-1.67627,.52881-2.17773,.85791-.75195,1.51611-.75195,1.16162,.25244,1.51025,.75781,.52295,1.23193,.52295,2.17969Zm-3.12598,0c0,.63818,.09082,1.11865,.27246,1.44141s.45312,.48438,.81445,.48438c.72461,0,1.08691-.64209,1.08691-1.92578,0-1.28662-.36035-1.92969-1.08105-1.92969-.36133,0-.63379,.16211-.81738,.48633s-.27539,.80518-.27539,1.44336Z"/><path class="cls-1" d="M17.12624,26.92889h-.9082v-4.70312h-1.16309v-1.00781h3.23438v1.00781h-1.16309v4.70312Z"/><path class="cls-1" d="M22.8362,24.06561c0,.94531-.17578,1.67188-.52734,2.17969s-.85547,.76172-1.51172,.76172-1.16016-.25391-1.51172-.76172-.52734-1.23682-.52734-2.1875,.17627-1.67627,.52881-2.17773,.85791-.75195,1.51611-.75195,1.16162,.25244,1.51025,.75781,.52295,1.23193,.52295,2.17969Zm-3.12598,0c0,.63818,.09082,1.11865,.27246,1.44141s.45312,.48438,.81445,.48438c.72461,0,1.08691-.64209,1.08691-1.92578,0-1.28662-.36035-1.92969-1.08105-1.92969-.36133,0-.63379,.16211-.81738,.48633s-.27539,.80518-.27539,1.44336Z"/><path class="cls-1" d="M26.68288,22.99921c0,.61475-.14404,1.08447-.43213,1.41016s-.69775,.48828-1.229,.48828h-.38965v2.03125h-.9082v-5.71094h1.36816c.51953,0,.91455,.14893,1.18506,.44727s.40576,.74268,.40576,1.33398Zm-2.05078,.90625h.29883c.2793,0,.48828-.07373,.62695-.2207s.20801-.36133,.20801-.64258c0-.28369-.05811-.49365-.17432-.62891s-.29834-.20312-.54639-.20312h-.41309v1.69531Z"/></g></g></g></svg>