<?xml version="1.0" encoding="UTF-8"?><svg id="Layer_2" xmlns="http://www.w3.org/2000/svg" viewBox="0 0 39.68501 29.27203"><defs><style>.cls-1{fill:#b2dff5;}</style></defs><g id="Layer_1-2"><g><rect class="cls-1" width="39.68501" height="28.34598"/><g><path d="M1.87773,18.92828v-5.71094h.7749v4.71094h1.48242v1H1.87773Z"/><path d="M7.00761,18.92828l-.26465-1.35938h-1.33252l-.26514,1.35938h-.83496l1.29004-5.73438h.94727l1.29541,5.73438h-.83545Zm-.44971-2.375c-.24512-1.23193-.38281-1.92822-.41357-2.08984-.03125-.16162-.05322-.28906-.06641-.38281-.05518,.3335-.2124,1.15771-.47266,2.47266h.95264Z"/><path d="M9.8499,18.92828l-.87988-4.48047h-.02246c.03174,.91162,.04736,1.51953,.04736,1.82422v2.65625h-.69238v-5.71094h1.05518l.86475,4.36719h.01514l.91748-4.36719h1.05518v5.71094h-.72266v-2.70312c0-.12744,.00146-.2749,.00391-.44141s.01367-.60938,.03369-1.32812h-.02246l-.94287,4.47266h-.70996Z"/><path d="M13.13017,18.92828v-5.71094h.7749v5.71094h-.7749Z"/><path d="M18.06767,18.92828h-.98535l-1.58984-4.32031h-.02246c.03174,.76318,.04736,1.30713,.04736,1.63281v2.6875h-.69238v-5.71094h.97754l1.5874,4.27734h.01758c-.0249-.74219-.0376-1.26709-.0376-1.57422v-2.70312h.69775v5.71094Z"/><path d="M22.30498,16.065c0,.94531-.1499,1.67188-.44971,2.17969-.30029,.50781-.72998,.76172-1.29004,.76172s-.99023-.25391-1.29004-.76172c-.30029-.50781-.4502-1.23682-.4502-2.1875s.15039-1.67627,.45117-2.17773c.30127-.50146,.73242-.75195,1.29395-.75195s.99121,.25244,1.28857,.75781c.29785,.50537,.44629,1.23193,.44629,2.17969Zm-2.66748,0c0,.63818,.07764,1.11865,.23242,1.44141,.15527,.32275,.38672,.48438,.69531,.48438,.61816,0,.92725-.64209,.92725-1.92578,0-1.28662-.30713-1.92969-.92236-1.92969-.30811,0-.54102,.16211-.69727,.48633-.15674,.32422-.23535,.80518-.23535,1.44336Z"/><path d="M25.14775,13.21735h.78271l-1.24268,5.71094h-.84473l-1.24023-5.71094h.78271l.6875,3.39844c.03809,.20068,.07764,.43408,.11865,.70117,.04053,.26709,.06592,.45264,.07617,.55664,.01807-.23975,.08057-.65869,.1875-1.25781l.69238-3.39844Z"/><path d="M28.62724,18.92828l-.26465-1.35938h-1.33252l-.26514,1.35938h-.83496l1.29004-5.73438h.94727l1.29541,5.73438h-.83545Zm-.44971-2.375c-.24512-1.23193-.38281-1.92822-.41357-2.08984-.03125-.16162-.05322-.28906-.06641-.38281-.05518,.3335-.2124,1.15771-.47266,2.47266h.95264Z"/><path d="M33.16533,18.92828h-.98535l-1.58984-4.32031h-.02246c.03174,.76318,.04736,1.30713,.04736,1.63281v2.6875h-.69238v-5.71094h.97754l1.5874,4.27734h.01758c-.0249-.74219-.0376-1.26709-.0376-1.57422v-2.70312h.69775v5.71094Z"/><path d="M36.19023,18.92828h-2.10498v-5.71094h2.10498v.99219h-1.33008v1.25391h1.23779v.99219h-1.23779v1.47266h1.33008v1Zm-1.50488-6.16797v-.10547c.28662-.521,.48242-.9126,.5874-1.17578h.85498v.08203c-.08643,.13525-.23438,.33643-.44385,.60352-.20898,.26709-.37256,.46533-.49121,.5957h-.50732Z"/></g><g><path d="M4.87285,26.92828h-.77246v-2.46484h-1.44775v2.46484h-.7749v-5.71094h.7749v2.23828h1.44775v-2.23828h.77246v5.71094Z"/><path d="M8.32011,22.9986c0,.61475-.12256,1.08447-.36865,1.41016-.24561,.32568-.59521,.48828-1.04883,.48828h-.33252v2.03125h-.7749v-5.71094h1.16748c.44336,0,.78027,.14893,1.01123,.44727s.34619,.74268,.34619,1.33398Zm-1.75,.90625h.25537c.23828,0,.4165-.07373,.53467-.2207,.11865-.14697,.17773-.36133,.17773-.64258,0-.28369-.0498-.49365-.14893-.62891s-.25439-.20312-.46631-.20312h-.35254v1.69531Z"/><path d="M9.01006,26.92828v-5.71094h.7749v4.71094h1.48242v1h-2.25732Z"/></g></g></g></svg>