<?xml version="1.0" encoding="UTF-8"?><svg id="Layer_2" xmlns="http://www.w3.org/2000/svg" viewBox="0 0 39.685 29.27203"><defs><style>.cls-1{fill:#fff;}</style></defs><g id="Layer_1-2"><g><rect width="39.685" height="28.34598"/><g><path class="cls-1" d="M4.48416,25.34235c0,.51562-.13965,.92188-.41699,1.21875-.2793,.29688-.66602,.44531-1.16211,.44531-.45703,0-.86133-.11475-1.21289-.34375v-1.125c.28906,.17188,.5332,.29297,.73438,.36328,.19922,.07031,.38281,.10547,.54883,.10547,.19922,0,.35156-.05078,.45898-.15234,.10547-.10156,.15918-.25244,.15918-.45312,0-.11182-.02344-.21143-.07031-.29883s-.11621-.17139-.20605-.25195c-.0918-.08057-.27637-.20947-.55566-.38672-.26172-.16406-.45801-.32178-.58887-.47266s-.23535-.32666-.31348-.52734-.11719-.43506-.11719-.70312c0-.50537,.12793-.90234,.38574-1.19141,.25586-.28906,.61133-.43359,1.06445-.43359,.22266,0,.43555,.03516,.63672,.10547,.20312,.07031,.41406,.16943,.63477,.29688l-.29297,.94141c-.22852-.125-.41797-.2124-.56641-.26172-.15039-.04932-.29688-.07422-.44141-.07422-.17188,0-.30371,.05322-.39551,.16016s-.1377,.24609-.1377,.41797c0,.10693,.01855,.19971,.05566,.2793s.0957,.15625,.17676,.23047,.27344,.20752,.57617,.40039c.40039,.25537,.6748,.51123,.82324,.76758s.22266,.5708,.22266,.94336Z"/><path class="cls-1" d="M5.26053,26.92828v-5.71094h.9082v5.71094h-.9082Z"/><path class="cls-1" d="M7.24686,26.92828v-5.71094h.9082v4.71094h1.7373v1h-2.64551Z"/><path class="cls-1" d="M14.08182,26.92828h-1.03125l-1.12207-2.40625-.38379,.36719v2.03906h-.9082v-5.71094h.9082v2.61328l.35742-.67188,1.16016-1.94141h1.00781l-1.49414,2.52734,1.50586,3.18359Z"/><path class="cls-1" d="M18.79276,26.92828h-1.03418l-.58008-3c-.02148-.10693-.05859-.32764-.11035-.66211s-.08105-.55908-.08887-.67383c-.01172,.14062-.04102,.3667-.08789,.67773s-.08301,.5332-.1084,.66602l-.57715,2.99219h-1.03125l-1.09277-5.71094h.89355l.54785,3.11719c.0957,.57568,.16504,1.07422,.20801,1.49609,.01172-.14844,.03809-.37842,.08105-.68945,.04102-.31104,.08105-.55273,.11816-.72461l.62402-3.19922h.8584l.62402,3.19922c.02734,.14307,.06152,.36182,.10254,.65625s.07227,.54688,.09375,.75781c.01953-.20312,.05078-.45654,.09375-.75977s.08203-.54883,.11719-.73633l.54492-3.11719h.89355l-1.08984,5.71094Z"/><path class="cls-1" d="M24.30936,24.065c0,.94531-.17578,1.67188-.52734,2.17969s-.85547,.76172-1.51172,.76172-1.16016-.25391-1.51172-.76172-.52734-1.23682-.52734-2.1875,.17578-1.67627,.52832-2.17773,.8584-.75195,1.5166-.75195,1.16113,.25244,1.51074,.75781c.34766,.50537,.52246,1.23193,.52246,2.17969Zm-3.12598,0c0,.63818,.09082,1.11865,.27246,1.44141s.45312,.48438,.81445,.48438c.72461,0,1.08691-.64209,1.08691-1.92578,0-1.28662-.36035-1.92969-1.08105-1.92969-.36133,0-.63379,.16211-.81738,.48633s-.27539,.80518-.27539,1.44336Z"/><path class="cls-1" d="M29.08475,24.065c0,.94531-.17578,1.67188-.52734,2.17969s-.85547,.76172-1.51172,.76172-1.16016-.25391-1.51172-.76172-.52734-1.23682-.52734-2.1875,.17578-1.67627,.52832-2.17773,.8584-.75195,1.5166-.75195,1.16113,.25244,1.51074,.75781c.34766,.50537,.52246,1.23193,.52246,2.17969Zm-3.12598,0c0,.63818,.09082,1.11865,.27246,1.44141s.45312,.48438,.81445,.48438c.72461,0,1.08691-.64209,1.08691-1.92578,0-1.28662-.36035-1.92969-1.08105-1.92969-.36133,0-.63379,.16211-.81738,.48633s-.27539,.80518-.27539,1.44336Z"/><path class="cls-1" d="M33.52615,24.01813c0,.93994-.2002,1.66016-.60254,2.16016-.40039,.5-.98047,.75-1.73828,.75h-1.21289v-5.71094h1.34473c.69922,0,1.24219,.24609,1.62891,.73828s.58008,1.17969,.58008,2.0625Zm-.94336,.03125c0-1.22656-.40625-1.83984-1.21875-1.83984h-.4834v3.71875h.38965c.875,0,1.3125-.62646,1.3125-1.87891Z"/></g></g></g></svg>