<?xml version="1.0" encoding="UTF-8"?><svg id="a" xmlns="http://www.w3.org/2000/svg" viewBox="0 0 41 30.94"><defs><style>.b{fill:#fff;}.c{fill:#56585a;}</style></defs><rect class="c" width="41" height="30"/><g><path class="b" d="M5.62,13.97v3.91c0,.45-.07,.84-.22,1.17-.15,.34-.36,.59-.63,.77s-.6,.27-.98,.27c-.57,0-1.01-.2-1.33-.6-.31-.4-.47-.94-.47-1.63v-3.89h.94v3.69c0,.46,.07,.81,.21,1.02,.14,.22,.36,.33,.68,.33s.53-.11,.67-.33,.21-.56,.21-1.03v-3.69h.94Z"/><path class="b" d="M10.63,20h-1.19l-1.92-4.57h-.03c.04,.81,.06,1.38,.06,1.73v2.84h-.84v-6.04h1.18l1.92,4.52h.02c-.03-.79-.05-1.34-.05-1.66v-2.86h.84v6.04Z"/><path class="b" d="M11.75,20v-6.04h.94v6.04h-.94Z"/><path class="b" d="M17.28,20l-1.07-4.74h-.03c.04,.96,.06,1.61,.06,1.93v2.81h-.84v-6.04h1.28l1.05,4.62h.02l1.11-4.62h1.28v6.04h-.87v-2.86c0-.13,0-.29,0-.47s.02-.64,.04-1.4h-.03l-1.14,4.73h-.86Z"/><path class="b" d="M23.96,20l-.32-1.44h-1.61l-.32,1.44h-1.01l1.56-6.06h1.15l1.57,6.06h-1.01Zm-.54-2.51c-.3-1.3-.46-2.04-.5-2.21-.04-.17-.06-.31-.08-.4-.07,.35-.26,1.22-.57,2.61h1.15Z"/><path class="b" d="M27.24,20h-.94v-4.97h-1.2v-1.06h3.34v1.06h-1.2v4.97Z"/></g><g><path class="b" d="M5.08,24.31c0,.65-.15,1.15-.45,1.49-.3,.34-.72,.52-1.27,.52h-.4v2.15h-.94v-6.04h1.41c.54,0,.94,.16,1.22,.47,.28,.31,.42,.78,.42,1.41Zm-2.12,.96h.31c.29,0,.5-.08,.65-.23s.21-.38,.21-.68-.06-.52-.18-.67c-.12-.14-.31-.21-.56-.21h-.43v1.79Z"/><path class="b" d="M5.91,28.46v-6.04h.94v4.98h1.79v1.06h-2.73Z"/><path class="b" d="M13.02,22.42v3.91c0,.45-.07,.84-.22,1.17-.15,.34-.36,.59-.63,.77s-.6,.27-.98,.27c-.57,0-1.01-.2-1.33-.6-.31-.4-.47-.94-.47-1.63v-3.89h.94v3.7c0,.46,.07,.81,.21,1.02,.14,.22,.36,.33,.68,.33s.53-.11,.67-.33,.21-.56,.21-1.03v-3.69h.94Z"/><path class="b" d="M16.71,26.78c0,.54-.14,.97-.43,1.29-.29,.31-.69,.47-1.2,.47-.47,0-.89-.12-1.25-.36v-1.19c.3,.18,.55,.31,.76,.38,.21,.07,.4,.11,.57,.11,.21,0,.36-.05,.47-.16,.11-.11,.17-.27,.17-.48,0-.12-.02-.22-.07-.32-.05-.09-.12-.18-.21-.27s-.29-.22-.57-.41c-.27-.17-.47-.34-.61-.5s-.24-.35-.32-.56-.12-.46-.12-.74c0-.53,.13-.95,.4-1.26,.27-.31,.63-.46,1.1-.46,.23,0,.45,.04,.66,.11,.21,.07,.43,.18,.66,.31l-.3,1c-.24-.13-.43-.22-.59-.28-.15-.05-.31-.08-.46-.08-.18,0-.31,.06-.41,.17-.1,.11-.14,.26-.14,.44,0,.11,.02,.21,.06,.29,.04,.08,.1,.17,.18,.24,.08,.08,.28,.22,.59,.42,.41,.27,.7,.54,.85,.81,.15,.27,.23,.6,.23,1Z"/></g></svg>