<?xml version="1.0" encoding="UTF-8"?><svg id="Layer_2" xmlns="http://www.w3.org/2000/svg" viewBox="0 0 39.685 29.27267"><defs><style>.cls-1{fill:#fabd42;}</style></defs><g id="Layer_1-2"><g><rect class="cls-1" width="39.685" height="28.34601"/><path d="M4.85544,16.01883c0,.94012-.16857,1.66016-.50572,2.16016-.33714,.5-.82403,.75-1.46056,.75H1.87032v-5.71094h1.12957c.58732,0,1.04344,.24609,1.36828,.73828,.32484,.49219,.48727,1.17969,.48727,2.0625Zm-1.89492,1.91016c.73498,0,1.1025-.62628,1.1025-1.87891,0-1.22656-.34126-1.83984-1.02375-1.83984h-.40605v3.71875h.3273Zm3.60796-2.35938l.75059-2.35156h.82195l-1.19356,3.48828v2.22266h-.75797v-2.18359l-1.19356-3.52734h.82687l.74567,2.35156Zm-.43805-2.80859v-.10547c.28217-.52081,.47496-.91272,.57832-1.17578h.84164v.08203c-.08532,.13544-.23094,.33661-.43681,.60352-.20591,.26697-.3671,.46552-.48357,.5957h-.49957Zm5.26025,6.16797h-.76043v-2.46484h-1.42488v2.46484h-.76289v-5.71094h.76289v2.23828h1.42488v-2.23828h.76043v5.71094Zm4.02187-2.86328c0,.94531-.14765,1.67188-.44297,2.17969-.29531,.50781-.71859,.76172-1.26984,.76172s-.97453-.25391-1.26984-.76172c-.29531-.50781-.44296-1.23694-.44296-2.1875,0-.9505,.14804-1.67639,.4442-2.17773,.29612-.50128,.72063-.75195,1.27354-.75195,.55286,0,.97576,.25262,1.26861,.75781,.29285,.50525,.43928,1.23181,.43928,2.17969Zm-2.62582,0c0,.63806,.07629,1.11853,.22887,1.44141,.15257,.32294,.3806,.48438,.68414,.48438,.60867,0,.91301-.64191,.91301-1.92578,0-1.28644-.3027-1.92969-.90808-1.92969-.30354,0-.53241,.16211-.68661,.48633-.15423,.32422-.23132,.80536-.23132,1.44336Zm5.27325-2.84766h.77027l-1.22308,5.71094h-.83179l-1.22063-5.71094h.77027l.67676,3.39844c.03773,.20056,.07668,.43427,.1169,.70117,.04018,.26697,.06522,.45251,.07506,.55664,.01804-.23956,.07956-.65881,.18457-1.25781l.68168-3.39844Zm3.27489,5.71094l-.26086-1.35938h-1.31168l-.26086,1.35938h-.82195l1.26984-5.73438h.93269l1.27477,5.73438h-.82195Zm-.44297-2.375c-.24117-1.23175-.37695-1.92834-.40728-2.08984-.03038-.16144-.0521-.28906-.06522-.38281-.05414,.33337-.20918,1.15759-.46512,2.47266h.93761Zm4.75868,2.375h-.9696l-1.56516-4.32031h-.02215c.03114,.76306,.04675,1.30731,.04675,1.63281v2.6875h-.68168v-5.71094h.96223l1.5627,4.27734h.01723c-.02461-.74219-.03692-1.26691-.03692-1.57422v-2.70312h.6866v5.71094Zm2.82663,0h-2.07211v-5.71094h2.07211v.99219h-1.30922v1.25391h1.21816v.99219h-1.21816v1.47266h1.30922v1Zm-1.48149-6.16797v-.10547c.28217-.52081,.47497-.91272,.57832-1.17578h.84164v.08203c-.08533,.13544-.23095,.33661-.43682,.60352-.20591,.26697-.3671,.46552-.48357,.5957h-.49957Z"/><g><path d="M3.99409,25.34299c0,.51562-.11621,.92188-.35059,1.21875-.2334,.29688-.55859,.44531-.97559,.44531-.38379,0-.72363-.11426-1.01855-.34375v-1.125c.24219,.17188,.44824,.29297,.61621,.36328s.32227,.10547,.46191,.10547c.16699,0,.29492-.05078,.38477-.15234s.13379-.25293,.13379-.45312c0-.1123-.01953-.21191-.05859-.29883s-.09766-.1709-.17383-.25195-.23145-.20996-.46582-.38672c-.21973-.16406-.38477-.32129-.49512-.47266-.10938-.15137-.19727-.32715-.2627-.52734-.06641-.2002-.09863-.43457-.09863-.70312,0-.50488,.10742-.90234,.32324-1.19141s.51367-.43359,.89453-.43359c.1875,0,.36523,.03516,.53516,.10547s.34766,.16895,.5332,.29688l-.24609,.94141c-.19238-.125-.35059-.21191-.47656-.26172-.125-.0498-.24902-.07422-.37012-.07422-.14453,0-.25488,.05371-.33203,.16016s-.11621,.24609-.11621,.41797c0,.10645,.01562,.2002,.04688,.2793s.08105,.15625,.14941,.23047c.06738,.07422,.22852,.20801,.4834,.40039,.33594,.25488,.56641,.51074,.69141,.76758s.18652,.57129,.18652,.94336Z"/><path d="M7.39449,26.92892h-.86621l-.94238-2.40625-.32227,.36719v2.03906h-.7627v-5.71094h.7627v2.61328l.2998-.67188,.97461-1.94141h.84668l-1.25488,2.52734,1.26465,3.18359Z"/><path d="M10.62398,21.21799v3.69531c0,.42188-.05859,.79199-.17773,1.10938s-.29102,.56152-.51562,.73047-.49121,.25391-.79785,.25391c-.46191,0-.82129-.18848-1.07715-.56445s-.38477-.8916-.38477-1.54492v-3.67969h.76074v3.49609c0,.44043,.05566,.7627,.16797,.96875,.11133,.20605,.2959,.30859,.55371,.30859,.24902,0,.42969-.10352,.54199-.31055s.16895-.53223,.16895-.97461v-3.48828h.75977Z"/><path d="M13.84566,22.99924c0,.61426-.12109,1.08496-.36328,1.41016s-.58594,.48828-1.03223,.48828h-.32715v2.03125h-.7627v-5.71094h1.14941c.43555,0,.76758,.14941,.99512,.44727s.34082,.74316,.34082,1.33398Zm-1.72266,.90625h.25098c.23438,0,.41016-.07324,.52637-.2207s.1748-.36133,.1748-.64258c0-.28418-.04883-.49316-.14648-.62891s-.25-.20312-.45898-.20312h-.34668v1.69531Z"/><path d="M14.37886,26.92892v-5.71094h.7627v5.71094h-.7627Z"/><path d="M19.08687,26.92892h-.96973l-1.56445-4.32031h-.02246c.03125,.7627,.04688,1.30762,.04688,1.63281v2.6875h-.68164v-5.71094h.96191l1.5625,4.27734h.01758c-.02441-.74219-.03711-1.2666-.03711-1.57422v-2.70312h.68652v5.71094Z"/><path d="M22.04878,26.92892l-.26074-1.35938h-1.31152l-.26074,1.35938h-.82227l1.26953-5.73438h.93262l1.27539,5.73438h-.82227Zm-.44336-2.375c-.24023-1.23145-.37695-1.92871-.40723-2.08984s-.05176-.28906-.06445-.38281c-.05469,.33301-.20996,1.15723-.46582,2.47266h.9375Z"/><path d="M25.86909,22.14377c-.28711,0-.50977,.1709-.66699,.51367-.1582,.34277-.23633,.81934-.23633,1.43164,0,1.27344,.30078,1.91016,.90332,1.91016,.25195,0,.55859-.10059,.91797-.30078v1.01562c-.2959,.19531-.62598,.29297-.98926,.29297-.52344,0-.92383-.25195-1.20117-.75586s-.41602-1.22754-.41602-2.16992c0-.59375,.06836-1.11426,.2041-1.56055s.33203-.78906,.58691-1.02734,.55371-.35742,.89746-.35742c.34863,0,.7002,.13379,1.05273,.40234l-.24609,.98438c-.13477-.10156-.26953-.19043-.40625-.26562-.13574-.0752-.26953-.11328-.40039-.11328Z"/></g></g></g></svg>