<?xml version="1.0" encoding="UTF-8"?><svg id="Layer_2" xmlns="http://www.w3.org/2000/svg" viewBox="0 0 39.685 29.27203"><defs><style>.cls-1{fill:#fabd42;}</style></defs><g id="Layer_1-2"><g><rect class="cls-1" width="39.685" height="28.34598"/><g><path d="M4.85529,16.01813c0,.93994-.16797,1.66016-.50488,2.16016-.33789,.5-.82422,.75-1.46094,.75H1.87091v-5.71094h1.12891c.58789,0,1.04395,.24609,1.36816,.73828,.3252,.49219,.4873,1.17969,.4873,2.0625Zm-.79199,.03125c0-1.22656-.34082-1.83984-1.02344-1.83984h-.40625v3.71875h.32715c.73535,0,1.10254-.62646,1.10254-1.87891Z"/><path d="M6.56915,15.56891l.75098-2.35156h.82227l-1.19434,3.48828v2.22266h-.75781v-2.18359l-1.19336-3.52734h.82715l.74512,2.35156Zm-.4375-2.80859v-.10547c.28223-.521,.47461-.9126,.57812-1.17578h.8418v.08203c-.08594,.13525-.23145,.33643-.4375,.60352-.20508,.26709-.36621,.46533-.4834,.5957h-.49902Z"/><path d="M11.3924,18.92828h-.76074v-2.46484h-1.4248v2.46484h-.7627v-5.71094h.7627v2.23828h1.4248v-2.23828h.76074v5.71094Z"/><path d="M15.41486,16.065c0,.94531-.14746,1.67188-.44336,2.17969-.29492,.50781-.71875,.76172-1.26953,.76172-.55176,0-.97461-.25391-1.27051-.76172-.29492-.50781-.44238-1.23682-.44238-2.1875s.14746-1.67627,.44434-2.17773c.2959-.50146,.7207-.75195,1.27344-.75195s.97559,.25244,1.26855,.75781,.43945,1.23193,.43945,2.17969Zm-2.62598,0c0,.63818,.07617,1.11865,.22852,1.44141s.38086,.48438,.68457,.48438c.6084,0,.91309-.64209,.91309-1.92578,0-1.28662-.30273-1.92969-.9082-1.92969-.30371,0-.53223,.16211-.68652,.48633s-.23145,.80518-.23145,1.44336Z"/><path d="M18.06622,13.21735h.77051l-1.22266,5.71094h-.83203l-1.2207-5.71094h.77051l.67676,3.39844c.03711,.20068,.07617,.43408,.11621,.70117,.04102,.26709,.06543,.45264,.0752,.55664,.01855-.23975,.08008-.65869,.18457-1.25781l.68164-3.39844Z"/><path d="M21.3465,18.92828l-.26074-1.35938h-1.31152l-.26074,1.35938h-.82227l1.26953-5.73438h.93262l1.27539,5.73438h-.82227Zm-.44336-2.375c-.24023-1.23193-.37695-1.92822-.40723-2.08984s-.05176-.28906-.06445-.38281c-.05469,.3335-.20996,1.15771-.46582,2.47266h.9375Z"/><path d="M25.66681,18.92828h-.96973l-1.56445-4.32031h-.02246c.03125,.76318,.04688,1.30713,.04688,1.63281v2.6875h-.68164v-5.71094h.96191l1.5625,4.27734h.01758c-.02441-.74219-.03711-1.26709-.03711-1.57422v-2.70312h.68652v5.71094Z"/><path d="M28.49884,18.92828h-2.07227v-5.71094h2.07227v.99219h-1.30957v1.25391h1.21777v.99219h-1.21777v1.47266h1.30957v1Zm-1.48242-6.16797v-.10547c.28223-.521,.47559-.9126,.5791-1.17578h.8418v.08203c-.08594,.13525-.23145,.33643-.4375,.60352s-.36719,.46533-.4834,.5957h-.5Z"/></g><g><path d="M3.99396,25.34235c0,.51562-.11621,.92188-.35059,1.21875-.2334,.29688-.55859,.44531-.97559,.44531-.38379,0-.72363-.11475-1.01855-.34375v-1.125c.24219,.17188,.44824,.29297,.61621,.36328s.32227,.10547,.46191,.10547c.16699,0,.29492-.05078,.38477-.15234s.13379-.25244,.13379-.45312c0-.11182-.01953-.21143-.05859-.29883s-.09766-.17139-.17383-.25195-.23145-.20947-.46582-.38672c-.21973-.16406-.38477-.32178-.49512-.47266-.10938-.15088-.19727-.32666-.2627-.52734-.06641-.20068-.09863-.43506-.09863-.70312,0-.50537,.10742-.90234,.32324-1.19141s.51367-.43359,.89453-.43359c.1875,0,.36523,.03516,.53516,.10547s.34766,.16943,.5332,.29688l-.24609,.94141c-.19238-.125-.35059-.2124-.47656-.26172-.125-.04932-.24902-.07422-.37012-.07422-.14453,0-.25488,.05322-.33203,.16016s-.11621,.24609-.11621,.41797c0,.10693,.01562,.19971,.04688,.2793s.08105,.15625,.14941,.23047c.06738,.07422,.22852,.20752,.4834,.40039,.33594,.25537,.56641,.51123,.69141,.76758s.18652,.5708,.18652,.94336Z"/><path d="M7.39435,26.92828h-.86621l-.94238-2.40625-.32227,.36719v2.03906h-.7627v-5.71094h.7627v2.61328l.2998-.67188,.97461-1.94141h.84668l-1.25488,2.52734,1.26465,3.18359Z"/><path d="M10.62384,21.21735v3.69531c0,.42188-.05859,.7915-.17773,1.10938s-.29102,.56104-.51562,.73047-.49121,.25391-.79785,.25391c-.46191,0-.82129-.18799-1.07715-.56445s-.38477-.89111-.38477-1.54492v-3.67969h.76074v3.49609c0,.43994,.05566,.76318,.16797,.96875,.11133,.20557,.2959,.30859,.55371,.30859,.24902,0,.42969-.10352,.54199-.31055s.16895-.53174,.16895-.97461v-3.48828h.75977Z"/><path d="M13.84552,22.9986c0,.61475-.12109,1.08447-.36328,1.41016s-.58594,.48828-1.03223,.48828h-.32715v2.03125h-.7627v-5.71094h1.14941c.43555,0,.76758,.14893,.99512,.44727s.34082,.74268,.34082,1.33398Zm-1.72266,.90625h.25098c.23438,0,.41016-.07373,.52637-.2207s.1748-.36133,.1748-.64258c0-.28369-.04883-.49365-.14648-.62891s-.25-.20312-.45898-.20312h-.34668v1.69531Z"/><path d="M14.37872,26.92828v-5.71094h.7627v5.71094h-.7627Z"/><path d="M19.08673,26.92828h-.96973l-1.56445-4.32031h-.02246c.03125,.76318,.04688,1.30713,.04688,1.63281v2.6875h-.68164v-5.71094h.96191l1.5625,4.27734h.01758c-.02441-.74219-.03711-1.26709-.03711-1.57422v-2.70312h.68652v5.71094Z"/><path d="M22.04865,26.92828l-.26074-1.35938h-1.31152l-.26074,1.35938h-.82227l1.26953-5.73438h.93262l1.27539,5.73438h-.82227Zm-.44336-2.375c-.24023-1.23193-.37695-1.92822-.40723-2.08984s-.05176-.28906-.06445-.38281c-.05469,.3335-.20996,1.15771-.46582,2.47266h.9375Z"/><path d="M26.54279,26.92828l-.26074-1.35938h-1.31152l-.26074,1.35938h-.82227l1.26953-5.73438h.93262l1.27539,5.73438h-.82227Zm-.44336-2.375c-.24023-1.23193-.37695-1.92822-.40723-2.08984s-.05176-.28906-.06445-.38281c-.05469,.3335-.20996,1.15771-.46582,2.47266h.9375Z"/></g></g></g></svg>