<?xml version="1.0" encoding="UTF-8"?><svg id="Layer_2" xmlns="http://www.w3.org/2000/svg" viewBox="0 0 39.685 29.27203"><defs><style>.cls-1{fill:#b2dff5;}</style></defs><g id="Layer_1-2"><g><rect class="cls-1" width="39.685" height="28.34598"/><g><path d="M1.87773,10.92828V5.21735h.7749v4.71094h1.48242v1H1.87773Z"/><path d="M7.00761,10.92828l-.26465-1.35938h-1.33252l-.26514,1.35938h-.83496l1.29004-5.73438h.94727l1.29541,5.73438h-.83545Zm-.44971-2.375c-.24512-1.23193-.38281-1.92822-.41357-2.08984-.03125-.16162-.05322-.28906-.06641-.38281-.05518,.3335-.2124,1.15771-.47266,2.47266h.95264Z"/><path d="M9.8499,10.92828l-.87988-4.48047h-.02246c.03174,.91162,.04736,1.51953,.04736,1.82422v2.65625h-.69238V5.21735h1.05518l.86475,4.36719h.01514l.91748-4.36719h1.05518v5.71094h-.72266v-2.70312c0-.12744,.00146-.2749,.00391-.44141s.01367-.60938,.03369-1.32812h-.02246l-.94287,4.47266h-.70996Z"/><path d="M13.13017,10.92828V5.21735h.7749v5.71094h-.7749Z"/><path d="M18.06767,10.92828h-.98535l-1.58984-4.32031h-.02246c.03174,.76318,.04736,1.30713,.04736,1.63281v2.6875h-.69238V5.21735h.97754l1.5874,4.27734h.01758c-.0249-.74219-.0376-1.26709-.0376-1.57422v-2.70312h.69775v5.71094Z"/><path d="M22.30498,8.065c0,.94531-.1499,1.67188-.44971,2.17969-.30029,.50781-.72998,.76172-1.29004,.76172s-.99023-.25391-1.29004-.76172c-.30029-.50781-.4502-1.23682-.4502-2.1875s.15039-1.67627,.45117-2.17773c.30127-.50146,.73242-.75195,1.29395-.75195s.99121,.25244,1.28857,.75781c.29785,.50537,.44629,1.23193,.44629,2.17969Zm-2.66748,0c0,.63818,.07764,1.11865,.23242,1.44141,.15527,.32275,.38672,.48438,.69531,.48438,.61816,0,.92725-.64209,.92725-1.92578,0-1.28662-.30713-1.92969-.92236-1.92969-.30811,0-.54102,.16211-.69727,.48633-.15674,.32422-.23535,.80518-.23535,1.44336Z"/><path d="M25.14775,5.21735h.78271l-1.24268,5.71094h-.84473l-1.24023-5.71094h.78271l.6875,3.39844c.03809,.20068,.07764,.43408,.11865,.70117,.04053,.26709,.06592,.45264,.07617,.55664,.01807-.23975,.08057-.65869,.1875-1.25781l.69238-3.39844Z"/><path d="M28.62724,10.92828l-.26465-1.35938h-1.33252l-.26514,1.35938h-.83496l1.29004-5.73438h.94727l1.29541,5.73438h-.83545Zm-.44971-2.375c-.24512-1.23193-.38281-1.92822-.41357-2.08984-.03125-.16162-.05322-.28906-.06641-.38281-.05518,.3335-.2124,1.15771-.47266,2.47266h.95264Z"/><path d="M33.16533,10.92828h-.98535l-1.58984-4.32031h-.02246c.03174,.76318,.04736,1.30713,.04736,1.63281v2.6875h-.69238V5.21735h.97754l1.5874,4.27734h.01758c-.0249-.74219-.0376-1.26709-.0376-1.57422v-2.70312h.69775v5.71094Z"/><path d="M36.19023,10.92828h-2.10498V5.21735h2.10498v.99219h-1.33008v1.25391h1.23779v.99219h-1.23779v1.47266h1.33008v1Zm-1.50488-6.16797v-.10547c.28662-.521,.48242-.9126,.5874-1.17578h.85498v.08203c-.08643,.13525-.23438,.33643-.44385,.60352-.20898,.26709-.37256,.46533-.49121,.5957h-.50732Z"/></g><g><path d="M3.43047,14.14313c-.29199,0-.51758,.17139-.67773,.51367s-.23975,.81982-.23975,1.43164c0,1.27344,.30566,1.91016,.91748,1.91016,.25635,0,.56738-.1001,.93213-.30078v1.01562c-.2998,.19531-.63477,.29297-1.00488,.29297-.53174,0-.93848-.25195-1.21973-.75586-.28174-.50391-.42285-1.22705-.42285-2.16992,0-.59375,.06934-1.11377,.20752-1.56055,.13867-.44678,.3374-.78906,.59619-1.02734,.25928-.23828,.56299-.35742,.91162-.35742,.35498,0,.71143,.13428,1.06982,.40234l-.25,.98438c-.13672-.10156-.27441-.18994-.4126-.26562s-.27393-.11328-.40723-.11328Z"/><path d="M7.66533,14.9986c0,.61475-.12256,1.08447-.36865,1.41016-.24561,.32568-.59521,.48828-1.04883,.48828h-.33252v2.03125h-.7749v-5.71094h1.16748c.44336,0,.78027,.14893,1.01123,.44727s.34619,.74268,.34619,1.33398Zm-1.75,.90625h.25537c.23828,0,.4165-.07373,.53467-.2207,.11865-.14697,.17773-.36133,.17773-.64258,0-.28369-.0498-.49365-.14893-.62891s-.25439-.20312-.46631-.20312h-.35254v1.69531Z"/><path d="M8.35527,18.92828v-5.71094h.7749v4.71094h1.48242v1h-2.25732Z"/></g><g><path d="M4.158,24.07281c0,.99756-.10498,1.73584-.31396,2.21484s-.53125,.71875-.96631,.71875c-.42188,0-.73975-.24756-.95361-.74219-.21436-.49463-.32129-1.2251-.32129-2.19141,0-1.00781,.104-1.75049,.3125-2.22852s.5293-.7168,.9624-.7168c.42188,0,.74023,.25,.95605,.75s.32422,1.23193,.32422,2.19531Zm-1.7876,0c0,.70068,.03857,1.20264,.11621,1.50586s.20801,.45508,.39111,.45508c.18018,0,.31006-.15381,.39014-.46094s.12012-.80713,.12012-1.5c0-.70068-.04053-1.20361-.12158-1.50977-.08057-.30615-.21045-.45898-.38867-.45898-.18164,0-.31152,.15283-.39014,.45898-.07812,.30615-.11719,.80908-.11719,1.50977Z"/><path d="M5.48759,26.08844c-.08643,.52588-.2334,1.1499-.43994,1.87109h-.5498c.10791-.69287,.19238-1.34619,.25244-1.96094h.69971l.0376,.08984Z"/><path d="M8.58525,26.92828h-2.55469v-.83984l.91748-1.44922c.27148-.43506,.44922-.73633,.53223-.9043,.0835-.16797,.14355-.32373,.18018-.4668s.05518-.2915,.05518-.44531c0-.229-.04053-.3999-.12158-.51172-.08057-.11182-.18848-.16797-.32373-.16797-.1416,0-.27881,.05078-.41211,.15234-.13379,.10156-.27295,.24609-.41748,.43359l-.42041-.77734c.18018-.23975,.3291-.40869,.44775-.50781,.11816-.09912,.24756-.17529,.38721-.22852,.14014-.05322,.29688-.08008,.47021-.08008,.22852,0,.43018,.06494,.60498,.19531s.31104,.3125,.40771,.54688,.14502,.50244,.14502,.80469c0,.26318-.02979,.50977-.08887,.74023s-.15088,.4668-.2749,.70898c-.12451,.24219-.34326,.5874-.65625,1.03516l-.47021,.69141v.05469h1.59229v1.01562Z"/><path d="M12.98027,26.92828h-.76221v-2.55078c0-.31494-.03369-.55127-.10156-.70898-.06738-.15771-.17334-.23633-.31836-.23633-.19531,0-.33691,.11182-.42529,.33594s-.13232,.59229-.13232,1.10547v2.05469h-.7627v-4.36719h.58252l.10254,.55859h.04248c.0752-.20068,.18359-.35742,.3252-.4707s.3042-.16992,.4873-.16992c.41846,0,.70166,.21338,.8501,.64062h.06738c.0752-.20312,.18555-.36084,.33154-.47266,.14551-.11182,.31006-.16797,.49365-.16797,.31641,0,.55615,.12695,.71875,.38086s.24365,.66064,.24365,1.2207v2.84766h-.76514v-2.55078c0-.31494-.03369-.55127-.10107-.70898s-.17383-.23633-.31885-.23633c-.18652,0-.32617,.104-.41895,.3125-.09229,.2085-.13867,.53906-.13867,.99219v2.19141Z"/><path d="M18.00761,26.92828h-.76221v-2.55078c0-.31494-.03369-.55127-.10156-.70898-.06738-.15771-.17334-.23633-.31836-.23633-.19531,0-.33691,.11182-.42529,.33594s-.13232,.59229-.13232,1.10547v2.05469h-.7627v-4.36719h.58252l.10254,.55859h.04248c.0752-.20068,.18359-.35742,.3252-.4707s.3042-.16992,.4873-.16992c.41846,0,.70166,.21338,.8501,.64062h.06738c.0752-.20312,.18555-.36084,.33154-.47266,.14551-.11182,.31006-.16797,.49365-.16797,.31641,0,.55615,.12695,.71875,.38086s.24365,.66064,.24365,1.2207v2.84766h-.76514v-2.55078c0-.31494-.03369-.55127-.10107-.70898s-.17383-.23633-.31885-.23633c-.18652,0-.32617,.104-.41895,.3125-.09229,.2085-.13867,.53906-.13867,.99219v2.19141Z"/></g></g></g></svg>