<?xml version="1.0" encoding="UTF-8"?><svg id="Layer_2" xmlns="http://www.w3.org/2000/svg" viewBox="0 0 39.685 29.27264"><defs><style>.cls-1{fill:#832044;}.cls-2{fill:#fff;}</style></defs><g id="Layer_1-2"><g><rect class="cls-1" width="39.685" height="28.34601"/><g><path class="cls-2" d="M5.46657,26.92889h-.90527v-2.46484h-1.69629v2.46484h-.9082v-5.71094h.9082v2.23828h1.69629v-2.23828h.90527v5.71094Z"/><path class="cls-2" d="M6.54762,26.92889v-5.71094h.9082v5.71094h-.9082Z"/><path class="cls-2" d="M10.15993,23.72186h1.69922v2.96094c-.27539,.11963-.53467,.20361-.77783,.25195s-.4917,.07227-.74561,.07227c-.64648,0-1.14014-.25342-1.48096-.75977s-.51123-1.23389-.51123-2.18164c0-.92188,.19775-1.64062,.59326-2.15625s.94385-.77344,1.64502-.77344c.43945,0,.86328,.11719,1.27148,.35156l-.30176,.96875c-.3125-.2085-.6377-.3125-.97559-.3125-.39258,0-.70703,.17578-.94336,.52734s-.35449,.82422-.35449,1.41797c0,.61963,.09521,1.09326,.28564,1.41992s.46729,.49023,.83057,.49023c.18945,0,.38184-.02588,.57715-.07812v-1.19141h-.81152v-1.00781Z"/><path class="cls-2" d="M16.38844,26.92889h-.90527v-2.46484h-1.69629v2.46484h-.9082v-5.71094h.9082v2.23828h1.69629v-2.23828h.90527v5.71094Z"/><path class="cls-2" d="M20.68044,26.92889h-.9082v-4.70312h-1.16309v-1.00781h3.23438v1.00781h-1.16309v4.70312Z"/><path class="cls-2" d="M26.3904,24.06561c0,.94531-.17578,1.67188-.52734,2.17969s-.85547,.76172-1.51172,.76172-1.16016-.25391-1.51172-.76172-.52734-1.23682-.52734-2.1875,.17627-1.67627,.52881-2.17773,.85791-.75195,1.51611-.75195,1.16162,.25244,1.51025,.75781,.52295,1.23193,.52295,2.17969Zm-3.12598,0c0,.63818,.09082,1.11865,.27246,1.44141s.45312,.48438,.81445,.48438c.72461,0,1.08691-.64209,1.08691-1.92578,0-1.28662-.36035-1.92969-1.08105-1.92969-.36133,0-.63379,.16211-.81738,.48633s-.27539,.80518-.27539,1.44336Z"/><path class="cls-2" d="M30.23708,22.99921c0,.61475-.14404,1.08447-.43213,1.41016s-.69775,.48828-1.229,.48828h-.38965v2.03125h-.9082v-5.71094h1.36816c.51953,0,.91455,.14893,1.18506,.44727s.40576,.74268,.40576,1.33398Zm-2.05078,.90625h.29883c.2793,0,.48828-.07373,.62695-.2207s.20801-.36133,.20801-.64258c0-.28369-.05811-.49365-.17432-.62891s-.29834-.20312-.54639-.20312h-.41309v1.69531Z"/></g></g></g></svg>