<?xml version="1.0" encoding="UTF-8"?><svg id="Layer_2" xmlns="http://www.w3.org/2000/svg" viewBox="0 0 39.685 28.34601"><defs><style>.cls-1{fill:#fff;}.cls-2{fill:#e18800;}</style></defs><g id="Layer_1-2"><g><rect class="cls-2" width="39.685" height="28.34601"/><g><path class="cls-1" d="M4.48531,9.34283c0,.51562-.13965,.92188-.41699,1.21875-.2793,.29688-.66602,.44531-1.16211,.44531-.45703,0-.86133-.11426-1.21289-.34375v-1.125c.28906,.17188,.5332,.29297,.73438,.36328,.19922,.07031,.38281,.10547,.54883,.10547,.19922,0,.35156-.05078,.45898-.15234,.10547-.10156,.15918-.25293,.15918-.45312,0-.1123-.02344-.21191-.07031-.29883s-.11621-.1709-.20605-.25195c-.0918-.08105-.27637-.20996-.55566-.38672-.26172-.16406-.45801-.32129-.58887-.47266s-.23535-.32715-.31348-.52734-.11719-.43457-.11719-.70312c0-.50488,.12793-.90234,.38574-1.19141,.25586-.28906,.61133-.43359,1.06445-.43359,.22266,0,.43555,.03516,.63672,.10547,.20312,.07031,.41406,.16895,.63477,.29688l-.29297,.94141c-.22852-.125-.41797-.21191-.56641-.26172-.15039-.0498-.29688-.07422-.44141-.07422-.17188,0-.30371,.05371-.39551,.16016s-.1377,.24609-.1377,.41797c0,.10645,.01855,.2002,.05566,.2793s.0957,.15625,.17676,.23047,.27344,.20801,.57617,.40039c.40039,.25488,.6748,.51074,.82324,.76758s.22266,.57129,.22266,.94336Z"/><path class="cls-1" d="M5.26167,10.92877V5.21783h.9082v5.71094h-.9082Z"/><path class="cls-1" d="M7.248,10.92877V5.21783h.9082v4.71094h1.7373v1h-2.64551Z"/><path class="cls-1" d="M14.08296,10.92877h-1.03125l-1.12207-2.40625-.38379,.36719v2.03906h-.9082V5.21783h.9082v2.61328l.35742-.67188,1.16016-1.94141h1.00781l-1.49414,2.52734,1.50586,3.18359Z"/><path class="cls-1" d="M17.15034,9.34283c0,.51562-.13965,.92188-.41699,1.21875-.2793,.29688-.66602,.44531-1.16211,.44531-.45703,0-.86133-.11426-1.21289-.34375v-1.125c.28906,.17188,.5332,.29297,.73438,.36328,.19922,.07031,.38281,.10547,.54883,.10547,.19922,0,.35156-.05078,.45898-.15234,.10547-.10156,.15918-.25293,.15918-.45312,0-.1123-.02344-.21191-.07031-.29883s-.11621-.1709-.20605-.25195c-.0918-.08105-.27637-.20996-.55566-.38672-.26172-.16406-.45801-.32129-.58887-.47266s-.23535-.32715-.31348-.52734-.11719-.43457-.11719-.70312c0-.50488,.12793-.90234,.38574-1.19141,.25586-.28906,.61133-.43359,1.06445-.43359,.22266,0,.43555,.03516,.63672,.10547,.20312,.07031,.41406,.16895,.63477,.29688l-.29297,.94141c-.22852-.125-.41797-.21191-.56641-.26172-.15039-.0498-.29688-.07422-.44141-.07422-.17188,0-.30371,.05371-.39551,.16016s-.1377,.24609-.1377,.41797c0,.10645,.01855,.2002,.05566,.2793s.0957,.15625,.17676,.23047,.27344,.20801,.57617,.40039c.40039,.25488,.6748,.51074,.82324,.76758s.22266,.57129,.22266,.94336Z"/><path class="cls-1" d="M19.57906,10.92877h-.9082V6.22565h-1.16309v-1.00781h3.23438v1.00781h-1.16309v4.70312Z"/><path class="cls-1" d="M25.28902,8.06549c0,.94531-.17578,1.67188-.52734,2.17969s-.85547,.76172-1.51172,.76172-1.16016-.25391-1.51172-.76172-.52734-1.2373-.52734-2.1875,.17578-1.67676,.52832-2.17773,.8584-.75195,1.5166-.75195,1.16113,.25293,1.51074,.75781c.34766,.50488,.52246,1.23145,.52246,2.17969Zm-3.12598,0c0,.6377,.09082,1.11816,.27246,1.44141s.45312,.48438,.81445,.48438c.72461,0,1.08691-.6416,1.08691-1.92578,0-1.28613-.36035-1.92969-1.08105-1.92969-.36133,0-.63379,.16211-.81738,.48633s-.27539,.80566-.27539,1.44336Z"/><path class="cls-1" d="M29.97652,10.92877h-1.1543l-1.86328-4.32031h-.02637c.03711,.7627,.05566,1.30762,.05566,1.63281v2.6875h-.81152V5.21783h1.14551l1.86035,4.27734h.02051c-.0293-.74219-.04395-1.2666-.04395-1.57422v-2.70312h.81738v5.71094Z"/><path class="cls-1" d="M33.52144,10.92877h-2.4668V5.21783h2.4668v.99219h-1.55859v1.25391h1.4502v.99219h-1.4502v1.47266h1.55859v1Z"/></g><g><path class="cls-1" d="M3.77632,14.14362c-.3418,0-.60645,.1709-.79395,.51367s-.28125,.81934-.28125,1.43164c0,1.27344,.3584,1.91016,1.0752,1.91016,.30078,0,.66504-.10059,1.09277-.30078v1.01562c-.35156,.19531-.74414,.29297-1.17773,.29297-.62305,0-1.09961-.25195-1.42969-.75586s-.49512-1.22754-.49512-2.16992c0-.59375,.08105-1.11426,.24316-1.56055s.39453-.78906,.69922-1.02734c.30273-.23828,.65918-.35742,1.06738-.35742,.41602,0,.83398,.13379,1.25391,.40234l-.29297,.98438c-.16016-.10156-.32129-.19043-.4834-.26562s-.32129-.11328-.47754-.11328Z"/><path class="cls-1" d="M8.73921,14.99908c0,.61426-.14453,1.08496-.43164,1.41016-.28906,.3252-.69824,.48828-1.22949,.48828h-.38965v2.03125h-.9082v-5.71094h1.36816c.51953,0,.91406,.14941,1.18457,.44727s.40625,.74316,.40625,1.33398Zm-2.05078,.90625h.29883c.2793,0,.48828-.07324,.62695-.2207s.20801-.36133,.20801-.64258c0-.28418-.05859-.49316-.1748-.62891s-.29785-.20312-.5459-.20312h-.41309v1.69531Z"/><path class="cls-1" d="M9.54781,18.92877v-5.71094h.9082v4.71094h1.7373v1h-2.64551Z"/></g><path class="cls-1" d="M4.62845,24.07343c0,.99744-.12259,1.73572-.36768,2.21484-.24513,.47919-.62256,.71875-1.13232,.71875-.49416,0-.86673-.24738-1.11768-.74219-.25099-.49475-.37646-1.22522-.37646-2.19141,0-1.00781,.12204-1.75061,.36621-2.22852,.24413-.47784,.62009-.7168,1.12793-.7168,.49411,0,.86765,.25,1.12061,.75,.25291,.5,.37939,1.23181,.37939,2.19531Zm-2.09473,0c0,.70056,.04541,1.20251,.13623,1.50586,.09082,.30341,.24362,.45508,.4585,.45508,.21094,0,.36328-.15363,.45703-.46094,.09375-.30725,.14062-.80725,.14062-1.5,0-.7005-.04738-1.20374-.14209-1.50977-.09476-.30597-.2466-.45898-.45557-.45898-.21291,0-.36525,.15302-.45703,.45898-.09183,.30603-.1377,.80927-.1377,1.50977Zm3.65451,2.01562c-.10158,.52606-.27347,1.14972-.51562,1.87109h-.64453c.12694-.69275,.22559-1.34631,.2959-1.96094h.82031l.04395,.08984Zm1.75168-2.75391c.11911-.03644,.2666-.05469,.44238-.05469,.41405,0,.74364,.15497,.98877,.46484,.24509,.30994,.36768,.73438,.36768,1.27344,0,.63806-.14749,1.12891-.44238,1.47266-.29494,.34375-.71681,.51562-1.26562,.51562-.47658,0-.86133-.10284-1.1543-.30859v-1.04297c.15427,.10938,.33398,.19861,.53906,.26758,.20508,.06903,.3994,.10352,.58301,.10352,.5527,0,.8291-.30206,.8291-.90625,0-.5755-.28615-.86328-.8584-.86328-.10355,0-.2178,.01367-.34277,.04102-.12502,.02734-.22659,.05664-.30469,.08789l-.36035-.25781,.16113-2.91016h2.32324v1.02344h-1.5293l-.0791,1.12109,.10254-.02734h0Zm7.03088,3.59375h-.89355v-2.55078c0-.31506-.03955-.55139-.11865-.70898-.0791-.15753-.20361-.23633-.37354-.23633-.22852,0-.39455,.112-.49805,.33594-.10355,.224-.15527,.59247-.15527,1.10547v2.05469h-.89355v-4.36719h.68262l.12012,.55859h.0498c.08789-.2005,.21483-.35742,.38086-.4707,.16599-.11328,.35641-.16992,.57129-.16992,.49022,0,.82224,.21356,.99609,.64062h.0791c.08789-.20312,.21725-.36066,.38818-.47266,.17088-.11194,.36374-.16797,.57861-.16797,.37106,0,.65186,.12695,.84229,.38086s.28564,.66083,.28564,1.2207v2.84766h-.89648v-2.55078c0-.31506-.03955-.55139-.11865-.70898-.0791-.15753-.20361-.23633-.37354-.23633-.21877,0-.38232,.10419-.49072,.3125-.1084,.20837-.1626,.53906-.1626,.99219v2.19141Zm5.89197,0h-.89355v-2.55078c0-.31506-.03955-.55139-.11865-.70898-.0791-.15753-.20361-.23633-.37354-.23633-.22852,0-.39455,.112-.49805,.33594-.10355,.224-.15527,.59247-.15527,1.10547v2.05469h-.89355v-4.36719h.68262l.12012,.55859h.0498c.08789-.2005,.21483-.35742,.38086-.4707,.16599-.11328,.35641-.16992,.57129-.16992,.49022,0,.82224,.21356,.99609,.64062h.0791c.08789-.20312,.21725-.36066,.38818-.47266,.17088-.11194,.36374-.16797,.57861-.16797,.37106,0,.65186,.12695,.84229,.38086s.28564,.66083,.28564,1.2207v2.84766h-.89648v-2.55078c0-.31506-.03955-.55139-.11865-.70898-.0791-.15753-.20361-.23633-.37354-.23633-.21877,0-.38232,.10419-.49072,.3125-.1084,.20837-.1626,.53906-.1626,.99219v2.19141Z"/></g></g></svg>