<?xml version="1.0" encoding="UTF-8"?><svg id="Layer_2" xmlns="http://www.w3.org/2000/svg" viewBox="0 0 39.685 29.27203"><defs><style>.cls-1{fill:#fff;}</style></defs><g id="Layer_1-2"><g><rect width="39.685" height="28.34601"/><g><path class="cls-1" d="M1.95651,13.21735h1.33301c.60742,0,1.04834,.11523,1.32275,.3457s.41162,.59717,.41162,1.09961c0,.34131-.06006,.62109-.18018,.83984s-.27979,.3501-.479,.39453v.03906c.27148,.08057,.46729,.23193,.5874,.45312s.18018,.51562,.18018,.88281c0,.521-.14111,.92725-.42334,1.21875s-.66553,.4375-1.1499,.4375H1.95651v-5.71094Zm.9082,2.26172h.52734c.24609,0,.42432-.05078,.53467-.15234s.16553-.26953,.16553-.50391c0-.21875-.06006-.37549-.18018-.4707s-.31006-.14258-.56982-.14258h-.47754v1.26953Zm0,.96094v1.48828h.5918c.25,0,.43457-.06396,.55371-.19141s.17871-.32275,.17871-.58594c0-.47412-.25391-.71094-.76172-.71094h-.5625Z"/><path class="cls-1" d="M5.98776,18.92828v-5.71094h.9082v4.71094h1.7373v1h-2.64551Z"/><path class="cls-1" d="M11.99948,18.92828l-.31055-1.35938h-1.56152l-.31055,1.35938h-.97852l1.51172-5.73438h1.11035l1.51807,5.73438h-.979Zm-.52734-2.375c-.28711-1.23193-.44873-1.92822-.48486-2.08984s-.06201-.28906-.07764-.38281c-.06445,.3335-.24902,1.15771-.55371,2.47266h1.11621Z"/><path class="cls-1" d="M15.33688,14.14313c-.3418,0-.60645,.17139-.79395,.51367s-.28125,.81982-.28125,1.43164c0,1.27344,.3584,1.91016,1.0752,1.91016,.30078,0,.66504-.1001,1.09277-.30078v1.01562c-.35156,.19531-.74414,.29297-1.17773,.29297-.62305,0-1.09961-.25195-1.42969-.75586s-.49512-1.22705-.49512-2.16992c0-.59375,.08105-1.11377,.24316-1.56055s.39453-.78906,.69824-1.02734,.66016-.35742,1.06836-.35742c.41602,0,.83398,.13428,1.25391,.40234l-.29297,.98438c-.16016-.10156-.32129-.18994-.4834-.26562s-.32129-.11328-.47754-.11328Z"/><path class="cls-1" d="M20.7861,18.92828h-1.03125l-1.12207-2.40625-.38379,.36719v2.03906h-.9082v-5.71094h.9082v2.61328l.35742-.67188,1.16016-1.94141h1.00781l-1.49414,2.52734,1.50586,3.18359Z"/></g><g><path class="cls-1" d="M2.86472,24.73688v2.19141h-.9082v-5.71094h1.24805c.58203,0,1.0127,.14111,1.29199,.42383s.41895,.71143,.41895,1.28711c0,.33594-.06934,.63477-.20801,.89648s-.33496,.4668-.58887,.61523c.64453,1.28369,1.06445,2.11328,1.25977,2.48828h-1.00781l-1.02246-2.19141h-.4834Zm0-.98438h.29297c.28711,0,.49902-.06396,.63574-.19141s.20508-.32812,.20508-.60156c0-.271-.06982-.46338-.20947-.57812s-.35596-.17188-.64893-.17188h-.27539v1.54297Z"/><path class="cls-1" d="M8.53952,26.92828l-.31055-1.35938h-1.56152l-.31055,1.35938h-.97852l1.51172-5.73438h1.11035l1.51758,5.73438h-.97852Zm-.52734-2.375c-.28711-1.23193-.44873-1.92822-.48486-2.08984s-.06201-.28906-.07764-.38281c-.06445,.3335-.24902,1.15771-.55371,2.47266h1.11621Z"/><path class="cls-1" d="M10.0571,26.92828v-5.71094h.9082v4.71094h1.73779v1h-2.646Z"/><path class="cls-1" d="M17.68356,23.65485c0,1.125-.17773,1.96484-.5332,2.51953s-.89355,.83203-1.61426,.83203c-.25391,0-.44629-.01807-.57715-.05469v-.96875c.16406,.05469,.33594,.08203,.51562,.08203,.30273,0,.55176-.05908,.74707-.17773s.34473-.30469,.44824-.55859,.16309-.60352,.17871-1.04883h-.03516c-.11328,.24463-.24414,.4165-.39258,.51562s-.33398,.14844-.55664,.14844c-.37305,0-.66699-.15967-.88184-.47852s-.32227-.76221-.32227-1.33008c0-.61182,.12988-1.0957,.39062-1.45117s.61621-.5332,1.06543-.5332c.31641,0,.59277,.09912,.83008,.29688s.41992,.48486,.54688,.86133,.19043,.82471,.19043,1.3457Zm-1.5498-1.53516c-.1875,0-.33398,.08594-.43945,.25781s-.1582,.41943-.1582,.74219c0,.27588,.04785,.49463,.14355,.65625s.24121,.24219,.43652,.24219c.18359,0,.34082-.08008,.47168-.24023s.19629-.34424,.19629-.55273c0-.31006-.06152-.57178-.18359-.78516s-.27734-.32031-.4668-.32031Z"/><path class="cls-1" d="M21.10251,24.07281c0,.99756-.12305,1.73584-.36816,2.21484s-.62207,.71875-1.13184,.71875c-.49414,0-.86719-.24756-1.11816-.74219s-.37598-1.2251-.37598-2.19141c0-1.00781,.12207-1.75049,.36621-2.22852s.62012-.7168,1.12793-.7168c.49414,0,.86719,.25,1.12012,.75s.37988,1.23193,.37988,2.19531Zm-2.09473,0c0,.70068,.04492,1.20264,.13574,1.50586s.24414,.45508,.45898,.45508c.21094,0,.36328-.15381,.45703-.46094s.14062-.80713,.14062-1.5c0-.70068-.04785-1.20361-.14258-1.50977s-.24609-.45898-.45508-.45898c-.21289,0-.36523,.15283-.45703,.45898s-.1377,.80908-.1377,1.50977Z"/><path class="cls-1" d="M24.52731,24.07281c0,.99756-.12305,1.73584-.36816,2.21484s-.62207,.71875-1.13184,.71875c-.49414,0-.86719-.24756-1.11816-.74219s-.37598-1.2251-.37598-2.19141c0-1.00781,.12207-1.75049,.36621-2.22852s.62012-.7168,1.12793-.7168c.49414,0,.86719,.25,1.12012,.75s.37988,1.23193,.37988,2.19531Zm-2.09473,0c0,.70068,.04492,1.20264,.13574,1.50586s.24414,.45508,.45898,.45508c.21094,0,.36328-.15381,.45703-.46094s.14062-.80713,.14062-1.5c0-.70068-.04785-1.20361-.14258-1.50977s-.24609-.45898-.45508-.45898c-.21289,0-.36523,.15283-.45703,.45898s-.1377,.80908-.1377,1.50977Z"/><path class="cls-1" d="M26.54001,23.27985c.41406,0,.74316,.15479,.98828,.46484s.36816,.73438,.36816,1.27344c0,.63818-.14746,1.12891-.44238,1.47266s-.7168,.51562-1.26562,.51562c-.47656,0-.86133-.10303-1.1543-.30859v-1.04297c.1543,.10938,.33398,.19873,.53906,.26758s.39941,.10352,.58301,.10352c.55273,0,.8291-.30225,.8291-.90625,0-.57568-.28613-.86328-.8584-.86328-.10352,0-.21777,.01367-.34277,.04102s-.22656,.05664-.30469,.08789l-.36035-.25781,.16113-2.91016h2.32324v1.02344h-1.5293l-.0791,1.12109,.10254-.02734c.11914-.03662,.2666-.05469,.44238-.05469Z"/></g></g></g></svg>