<?xml version="1.0" encoding="UTF-8"?><svg id="Layer_2" xmlns="http://www.w3.org/2000/svg" viewBox="0 0 39.685 29.27197"><defs><style>.cls-1{fill:#fff;}.cls-2{fill:#e18800;}</style></defs><g id="Layer_1-2"><g><rect class="cls-2" width="39.685" height="28.34601"/><g><path class="cls-1" d="M4.48492,25.34229c0,.51562-.13916,.92188-.41748,1.21875s-.66553,.44531-1.16162,.44531c-.45703,0-.86133-.11475-1.21289-.34375v-1.125c.28906,.17188,.53369,.29297,.73389,.36328s.3833,.10547,.54932,.10547c.19922,0,.35205-.05078,.4585-.15234s.15967-.25244,.15967-.45312c0-.11182-.02344-.21143-.07031-.29883s-.11572-.17139-.20654-.25195-.27588-.20947-.55518-.38672c-.26172-.16406-.45801-.32178-.58887-.47266s-.23535-.32666-.31348-.52734-.11719-.43506-.11719-.70312c0-.50537,.12842-.90234,.38525-1.19141s.61182-.43359,1.06494-.43359c.22266,0,.43506,.03516,.63721,.10547s.41357,.16943,.63428,.29688l-.29297,.94141c-.22852-.125-.41748-.2124-.56689-.26172s-.29639-.07422-.44092-.07422c-.17188,0-.30371,.05322-.39551,.16016s-.1377,.24609-.1377,.41797c0,.10693,.01855,.19971,.05566,.2793s.09619,.15625,.17725,.23047,.27295,.20752,.57568,.40039c.40039,.25537,.6748,.51123,.82324,.76758s.22266,.5708,.22266,.94336Z"/><path class="cls-1" d="M5.26129,26.92822v-5.71094h.9082v5.71094h-.9082Z"/><path class="cls-1" d="M7.24762,26.92822v-5.71094h.9082v4.71094h1.7373v1h-2.64551Z"/><path class="cls-1" d="M14.08258,26.92822h-1.03125l-1.12207-2.40625-.38379,.36719v2.03906h-.9082v-5.71094h.9082v2.61328l.35742-.67188,1.16016-1.94141h1.00781l-1.49414,2.52734,1.50586,3.18359Z"/><path class="cls-1" d="M17.14996,25.34229c0,.51562-.13916,.92188-.41748,1.21875s-.66553,.44531-1.16162,.44531c-.45703,0-.86133-.11475-1.21289-.34375v-1.125c.28906,.17188,.53369,.29297,.73389,.36328s.3833,.10547,.54932,.10547c.19922,0,.35205-.05078,.4585-.15234s.15967-.25244,.15967-.45312c0-.11182-.02344-.21143-.07031-.29883s-.11572-.17139-.20654-.25195-.27588-.20947-.55518-.38672c-.26172-.16406-.45801-.32178-.58887-.47266s-.23535-.32666-.31348-.52734-.11719-.43506-.11719-.70312c0-.50537,.12842-.90234,.38525-1.19141s.61182-.43359,1.06494-.43359c.22266,0,.43506,.03516,.63721,.10547s.41357,.16943,.63428,.29688l-.29297,.94141c-.22852-.125-.41748-.2124-.56689-.26172s-.29639-.07422-.44092-.07422c-.17188,0-.30371,.05322-.39551,.16016s-.1377,.24609-.1377,.41797c0,.10693,.01855,.19971,.05566,.2793s.09619,.15625,.17725,.23047,.27295,.20752,.57568,.40039c.40039,.25537,.6748,.51123,.82324,.76758s.22266,.5708,.22266,.94336Z"/><path class="cls-1" d="M19.57867,26.92822h-.9082v-4.70312h-1.16309v-1.00781h3.23438v1.00781h-1.16309v4.70312Z"/><path class="cls-1" d="M25.28864,24.06494c0,.94531-.17578,1.67188-.52734,2.17969s-.85547,.76172-1.51172,.76172-1.16016-.25391-1.51172-.76172-.52734-1.23682-.52734-2.1875,.17627-1.67627,.52881-2.17773,.85791-.75195,1.51611-.75195,1.16162,.25244,1.51025,.75781,.52295,1.23193,.52295,2.17969Zm-3.12598,0c0,.63818,.09082,1.11865,.27246,1.44141s.45312,.48438,.81445,.48438c.72461,0,1.08691-.64209,1.08691-1.92578,0-1.28662-.36035-1.92969-1.08105-1.92969-.36133,0-.63379,.16211-.81738,.48633s-.27539,.80518-.27539,1.44336Z"/><path class="cls-1" d="M29.97614,26.92822h-1.1543l-1.86328-4.32031h-.02637c.03711,.76318,.05566,1.30713,.05566,1.63281v2.6875h-.81152v-5.71094h1.14551l1.86035,4.27734h.02051c-.0293-.74219-.04395-1.26709-.04395-1.57422v-2.70312h.81738v5.71094Z"/><path class="cls-1" d="M33.52106,26.92822h-2.4668v-5.71094h2.4668v.99219h-1.55859v1.25391h1.4502v.99219h-1.4502v1.47266h1.55859v1Z"/></g></g></g></svg>