<?xml version="1.0" encoding="UTF-8"?><svg id="Layer_2" xmlns="http://www.w3.org/2000/svg" viewBox="0 0 39.685 29.2724"><defs><style>.cls-1{fill:#fabd42;}</style></defs><g id="Layer_1-2"><g><rect class="cls-1" width="39.685" height="28.34601"/><g><path d="M4.85495,16.01849c0,.93994-.16846,1.66016-.50586,2.16016-.33691,.5-.82373,.75-1.46045,.75H1.8696v-5.71094h1.12988c.5874,0,1.04346,.24609,1.36816,.73828s.4873,1.17969,.4873,2.0625Zm-.79248,.03125c0-1.22656-.34131-1.83984-1.02393-1.83984h-.40576v3.71875h.32715c.73486,0,1.10254-.62646,1.10254-1.87891Z"/><path d="M6.56931,15.56927l.75049-2.35156h.82178l-1.19336,3.48828v2.22266h-.7583v-2.18359l-1.19336-3.52734h.82666l.74609,2.35156Zm-.43848-2.80859v-.10547c.28223-.521,.4751-.9126,.57861-1.17578h.8418v.08203c-.08545,.13525-.23096,.33643-.43701,.60352s-.36719,.46533-.4834,.5957h-.5Z"/><path d="M11.39108,18.92865h-.76025v-2.46484h-1.4248v2.46484h-.76318v-5.71094h.76318v2.23828h1.4248v-2.23828h.76025v5.71094Z"/><path d="M15.41403,16.06537c0,.94531-.14746,1.67188-.44336,2.17969-.29492,.50781-.71875,.76172-1.26953,.76172-.55176,0-.97461-.25391-1.26953-.76172-.2959-.50781-.44336-1.23682-.44336-2.1875s.14795-1.67627,.44336-2.17773c.29688-.50146,.72168-.75195,1.27441-.75195s.97559,.25244,1.26855,.75781,.43945,1.23193,.43945,2.17969Zm-2.62598,0c0,.63818,.07617,1.11865,.22852,1.44141s.38086,.48438,.68457,.48438c.6084,0,.91309-.64209,.91309-1.92578,0-1.28662-.30273-1.92969-.9082-1.92969-.30371,0-.53223,.16211-.68652,.48633s-.23145,.80518-.23145,1.44336Z"/><path d="M18.0654,13.21771h.77051l-1.22266,5.71094h-.83203l-1.2207-5.71094h.77051l.67676,3.39844c.03711,.20068,.07617,.43408,.11621,.70117,.04102,.26709,.06543,.45264,.0752,.55664,.01855-.23975,.08008-.65869,.18457-1.25781l.68164-3.39844Z"/><path d="M21.34567,18.92865l-.26074-1.35938h-1.31152l-.26074,1.35938h-.82227l1.26953-5.73438h.93262l1.27539,5.73438h-.82227Zm-.44336-2.375c-.24023-1.23193-.37695-1.92822-.40723-2.08984s-.05176-.28906-.06445-.38281c-.05469,.3335-.20996,1.15771-.46582,2.47266h.9375Z"/><path d="M25.66599,18.92865h-.96973l-1.56445-4.32031h-.02246c.03125,.76318,.04688,1.30713,.04688,1.63281v2.6875h-.68164v-5.71094h.96191l1.5625,4.27734h.01758c-.02441-.74219-.03711-1.26709-.03711-1.57422v-2.70312h.68652v5.71094Z"/><path d="M28.49802,18.92865h-2.07227v-5.71094h2.07227v.99219h-1.30957v1.25391h1.21777v.99219h-1.21777v1.47266h1.30957v1Zm-1.48242-6.16797v-.10547c.28223-.521,.47559-.9126,.5791-1.17578h.8418v.08203c-.08594,.13525-.23145,.33643-.4375,.60352s-.36719,.46533-.4834,.5957h-.5Z"/></g><g><path d="M3.99362,25.34271c0,.51562-.11719,.92188-.35059,1.21875-.23389,.29688-.55908,.44531-.97607,.44531-.38379,0-.72314-.11475-1.01855-.34375v-1.125c.24268,.17188,.44824,.29297,.61621,.36328,.16846,.07031,.32227,.10547,.46143,.10547,.16748,0,.2959-.05078,.38525-.15234s.13428-.25244,.13428-.45312c0-.11182-.02002-.21143-.05908-.29883-.03955-.0874-.09717-.17139-.17383-.25195-.07617-.08057-.23145-.20947-.46631-.38672-.21973-.16406-.38477-.32178-.49463-.47266s-.19775-.32666-.26318-.52734-.09863-.43506-.09863-.70312c0-.50537,.10791-.90234,.32373-1.19141s.51416-.43359,.89453-.43359c.18701,0,.36572,.03516,.53516,.10547,.16992,.07031,.34766,.16943,.5332,.29688l-.24609,.94141c-.19238-.125-.35107-.2124-.47656-.26172s-.24902-.07422-.37012-.07422c-.14453,0-.25537,.05322-.33252,.16016s-.11523,.24609-.11523,.41797c0,.10693,.01514,.19971,.04639,.2793s.08105,.15625,.14893,.23047c.06836,.07422,.22949,.20752,.48389,.40039,.33594,.25537,.56641,.51123,.69141,.76758,.12451,.25635,.18701,.5708,.18701,.94336Z"/><path d="M7.39352,26.92865h-.86621l-.94238-2.40625-.32227,.36719v2.03906h-.76318v-5.71094h.76318v2.61328l.30029-.67188,.97412-1.94141h.84668l-1.25488,2.52734,1.26465,3.18359Z"/><path d="M10.6235,21.21771v3.69531c0,.42188-.05957,.7915-.17822,1.10938-.11914,.31787-.29102,.56104-.51562,.73047-.2251,.16943-.49072,.25391-.79736,.25391-.46289,0-.82227-.18799-1.07812-.56445s-.38379-.89111-.38379-1.54492v-3.67969h.76025v3.49609c0,.43994,.05615,.76318,.16748,.96875s.2959,.30859,.55371,.30859c.24951,0,.43018-.10352,.54248-.31055s.16895-.53174,.16895-.97461v-3.48828h.76025Z"/><path d="M13.84372,22.99896c0,.61475-.12109,1.08447-.36328,1.41016s-.58594,.48828-1.03125,.48828h-.32764v2.03125h-.76318v-5.71094h1.14941c.43555,0,.76758,.14893,.99609,.44727,.22656,.29834,.33984,.74268,.33984,1.33398Zm-1.72217,.90625h.25146c.23438,0,.41016-.07373,.52539-.2207,.11719-.14697,.17578-.36133,.17578-.64258,0-.28369-.04883-.49365-.14648-.62891s-.25098-.20312-.45898-.20312h-.34717v1.69531Z"/><path d="M14.3779,26.92865v-5.71094h.7627v5.71094h-.7627Z"/><path d="M19.08591,26.92865h-.96973l-1.56445-4.32031h-.02246c.03125,.76318,.04688,1.30713,.04688,1.63281v2.6875h-.68164v-5.71094h.96191l1.5625,4.27734h.01758c-.02441-.74219-.03711-1.26709-.03711-1.57422v-2.70312h.68652v5.71094Z"/><path d="M22.04782,26.92865l-.26074-1.35938h-1.31152l-.26074,1.35938h-.82227l1.26953-5.73438h.93262l1.27539,5.73438h-.82227Zm-.44336-2.375c-.24023-1.23193-.37695-1.92822-.40723-2.08984s-.05176-.28906-.06445-.38281c-.05469,.3335-.20996,1.15771-.46582,2.47266h.9375Z"/><path d="M26.54196,26.92865l-.26074-1.35938h-1.31152l-.26074,1.35938h-.82227l1.26953-5.73438h.93262l1.27539,5.73438h-.82227Zm-.44336-2.375c-.24023-1.23193-.37695-1.92822-.40723-2.08984s-.05176-.28906-.06445-.38281c-.05469,.3335-.20996,1.15771-.46582,2.47266h.9375Z"/></g></g></g></svg>