<?xml version="1.0" encoding="UTF-8"?><svg id="Layer_2" xmlns="http://www.w3.org/2000/svg" viewBox="0 0 39.685 29.27271"><defs><style>.cls-1{fill:#fff;}</style></defs><g id="Layer_1-2"><g><rect width="39.685" height="28.34601"/><g><path class="cls-1" d="M1.95699,18.92896v-5.71094h.9082v4.71094h1.7373v1H1.95699Z"/><path class="cls-1" d="M7.9687,18.92896l-.31055-1.35938h-1.56152l-.31055,1.35938h-.97852l1.51172-5.73438h1.11035l1.51758,5.73438h-.97852Zm-.52734-2.375c-.28711-1.23193-.44922-1.92822-.48535-2.08984s-.06152-.28906-.07715-.38281c-.06445,.3335-.24902,1.15771-.55371,2.47266h1.11621Z"/><path class="cls-1" d="M11.29976,18.92896l-1.03125-4.48047h-.02637c.03711,.91162,.05566,1.51953,.05566,1.82422v2.65625h-.81152v-5.71094h1.23633l1.01367,4.36719h.01758l1.0752-4.36719h1.23633v5.71094h-.84668v-2.70312c0-.12744,.00195-.2749,.00391-.44141,.00391-.1665,.0166-.60938,.04004-1.32812h-.02637l-1.10449,4.47266h-.83203Z"/><path class="cls-1" d="M15.14351,18.92896v-5.71094h.9082v5.71094h-.9082Z"/><path class="cls-1" d="M19.65816,17.34302c0,.51562-.13965,.92188-.41699,1.21875-.2793,.29688-.66602,.44531-1.16211,.44531-.45703,0-.86133-.11475-1.21289-.34375v-1.125c.28906,.17188,.5332,.29297,.73438,.36328,.19922,.07031,.38281,.10547,.54883,.10547,.19922,0,.35156-.05078,.45898-.15234,.10547-.10156,.15918-.25244,.15918-.45312,0-.11182-.02344-.21143-.07031-.29883s-.11621-.17139-.20605-.25195c-.0918-.08057-.27637-.20947-.55566-.38672-.26172-.16406-.45801-.32178-.58887-.47266s-.23535-.32666-.31348-.52734-.11719-.43506-.11719-.70312c0-.50537,.12793-.90234,.38574-1.19141,.25586-.28906,.61133-.43359,1.06445-.43359,.22266,0,.43555,.03516,.63672,.10547,.20312,.07031,.41406,.16943,.63477,.29688l-.29297,.94141c-.22852-.125-.41797-.2124-.56641-.26172-.15039-.04932-.29688-.07422-.44141-.07422-.17188,0-.30371,.05322-.39551,.16016s-.1377,.24609-.1377,.41797c0,.10693,.01855,.19971,.05566,.2793s.0957,.15625,.17676,.23047,.27344,.20752,.57617,.40039c.40039,.25537,.6748,.51123,.82324,.76758s.22266,.5708,.22266,.94336Z"/><path class="cls-1" d="M22.08687,18.92896h-.9082v-4.70312h-1.16309v-1.00781h3.23438v1.00781h-1.16309v4.70312Z"/><path class="cls-1" d="M27.79683,16.06567c0,.94531-.17578,1.67188-.52734,2.17969s-.85547,.76172-1.51172,.76172-1.16016-.25391-1.51172-.76172-.52734-1.23682-.52734-2.1875,.17578-1.67627,.52832-2.17773,.8584-.75195,1.5166-.75195,1.16113,.25244,1.51074,.75781c.34766,.50537,.52246,1.23193,.52246,2.17969Zm-3.12598,0c0,.63818,.09082,1.11865,.27246,1.44141s.45312,.48438,.81445,.48438c.72461,0,1.08691-.64209,1.08691-1.92578,0-1.28662-.36035-1.92969-1.08105-1.92969-.36133,0-.63379,.16211-.81738,.48633s-.27539,.80518-.27539,1.44336Z"/><path class="cls-1" d="M32.48433,18.92896h-1.1543l-1.86328-4.32031h-.02637c.03711,.76318,.05566,1.30713,.05566,1.63281v2.6875h-.81152v-5.71094h1.14551l1.86035,4.27734h.02051c-.0293-.74219-.04395-1.26709-.04395-1.57422v-2.70312h.81738v5.71094Z"/><path class="cls-1" d="M36.02925,18.92896h-2.4668v-5.71094h2.4668v.99219h-1.55859v1.25391h1.4502v.99219h-1.4502v1.47266h1.55859v1Z"/></g><g><path class="cls-1" d="M3.77632,22.1438c-.3418,0-.60645,.17139-.79395,.51367s-.28125,.81982-.28125,1.43164c0,1.27344,.3584,1.91016,1.0752,1.91016,.30078,0,.66504-.1001,1.09277-.30078v1.01562c-.35156,.19531-.74414,.29297-1.17773,.29297-.62305,0-1.09961-.25195-1.42969-.75586s-.49512-1.22705-.49512-2.16992c0-.59375,.08105-1.11377,.24316-1.56055s.39453-.78906,.69922-1.02734c.30273-.23828,.65918-.35742,1.06738-.35742,.41602,0,.83398,.13428,1.25391,.40234l-.29297,.98438c-.16016-.10156-.32129-.18994-.4834-.26562s-.32129-.11328-.47754-.11328Z"/><path class="cls-1" d="M8.73921,22.99927c0,.61475-.14453,1.08447-.43164,1.41016-.28906,.32568-.69824,.48828-1.22949,.48828h-.38965v2.03125h-.9082v-5.71094h1.36816c.51953,0,.91406,.14893,1.18457,.44727s.40625,.74268,.40625,1.33398Zm-2.05078,.90625h.29883c.2793,0,.48828-.07373,.62695-.2207s.20801-.36133,.20801-.64258c0-.28369-.05859-.49365-.1748-.62891s-.29785-.20312-.5459-.20312h-.41309v1.69531Z"/><path class="cls-1" d="M9.54781,26.92896v-5.71094h.9082v4.71094h1.7373v1h-2.64551Z"/></g></g></g></svg>