<?xml version="1.0" encoding="UTF-8"?><svg id="Layer_2" xmlns="http://www.w3.org/2000/svg" viewBox="0 0 39.685 29.27259"><defs><style>.cls-1{fill:#fabd42;}</style></defs><g id="Layer_1-2"><g><rect class="cls-1" width="39.685" height="28.34601"/><g><path d="M4.85554,16.01869c0,.94043-.16846,1.66016-.50586,2.16016-.33691,.5-.82373,.75-1.46045,.75H1.87019v-5.71094h1.12988c.5874,0,1.04346,.24609,1.36816,.73828s.4873,1.17969,.4873,2.0625Zm-.79248,.03125c0-1.22656-.34131-1.83984-1.02393-1.83984h-.40576v3.71875h.32715c.73486,0,1.10254-.62598,1.10254-1.87891Z"/><path d="M6.5699,15.56947l.75049-2.35156h.82178l-1.19336,3.48828v2.22266h-.7583v-2.18359l-1.19336-3.52734h.82666l.74609,2.35156Zm-.43848-2.80859v-.10547c.28223-.52051,.4751-.91309,.57861-1.17578h.8418v.08203c-.08545,.13574-.23096,.33691-.43701,.60352s-.36719,.46582-.4834,.5957h-.5Z"/><path d="M11.39168,18.92884h-.76025v-2.46484h-1.4248v2.46484h-.76318v-5.71094h.76318v2.23828h1.4248v-2.23828h.76025v5.71094Z"/><path d="M15.41414,16.06556c0,.94531-.14746,1.67188-.44287,2.17969s-.71826,.76172-1.26953,.76172-.97461-.25391-1.27002-.76172-.44287-1.2373-.44287-2.1875,.14795-1.67676,.44385-2.17773c.29639-.50098,.7207-.75195,1.27393-.75195,.55273,0,.97559,.25293,1.26855,.75781s.43896,1.23145,.43896,2.17969Zm-2.62549,0c0,.6377,.07617,1.11816,.22852,1.44141,.15283,.32324,.38086,.48438,.68457,.48438,.6084,0,.9126-.6416,.9126-1.92578,0-1.28613-.30225-1.92969-.90771-1.92969-.30371,0-.53271,.16211-.68652,.48633-.1543,.32422-.23145,.80566-.23145,1.44336Z"/><path d="M18.06648,13.2179h.77002l-1.22314,5.71094h-.83154l-1.2207-5.71094h.77051l.67676,3.39844c.0376,.2002,.07666,.43457,.1167,.70117s.06494,.45215,.0752,.55664c.01807-.23926,.07959-.65918,.18457-1.25781l.68164-3.39844Z"/><path d="M21.34578,18.92884l-.26074-1.35938h-1.31152l-.26123,1.35938h-.82178l1.27002-5.73438h.93262l1.2749,5.73438h-.82227Zm-.44287-2.375c-.24121-1.23145-.37695-1.92871-.40723-2.08984s-.05225-.28906-.06543-.38281c-.0542,.33301-.20898,1.15723-.46484,2.47266h.9375Z"/><path d="M25.66609,18.92884h-.96973l-1.56494-4.32031h-.02197c.03076,.7627,.04639,1.30762,.04639,1.63281v2.6875h-.68164v-5.71094h.9624l1.5625,4.27734h.01758c-.0249-.74219-.03711-1.2666-.03711-1.57422v-2.70312h.68652v5.71094Z"/><path d="M28.49812,18.92884h-2.07227v-5.71094h2.07227v.99219h-1.30908v1.25391h1.21826v.99219h-1.21826v1.47266h1.30908v1Zm-1.48145-6.16797v-.10547c.28223-.52051,.4751-.91309,.57812-1.17578h.8418v.08203c-.08545,.13574-.23096,.33691-.43701,.60352-.20557,.2666-.3667,.46582-.4834,.5957h-.49951Z"/></g><g><path d="M3.99422,25.3429c0,.51562-.11719,.92188-.35059,1.21875-.23389,.29688-.55908,.44531-.97607,.44531-.38379,0-.72314-.11426-1.01855-.34375v-1.125c.24268,.17188,.44824,.29297,.61621,.36328,.16846,.07031,.32227,.10547,.46143,.10547,.16748,0,.2959-.05078,.38525-.15234s.13428-.25293,.13428-.45312c0-.1123-.02002-.21191-.05908-.29883-.03955-.08691-.09717-.1709-.17383-.25195-.07617-.08105-.23145-.20996-.46631-.38672-.21973-.16406-.38477-.32129-.49463-.47266s-.19775-.32715-.26318-.52734-.09863-.43457-.09863-.70312c0-.50488,.10791-.90234,.32373-1.19141s.51416-.43359,.89453-.43359c.18701,0,.36572,.03516,.53516,.10547,.16992,.07031,.34766,.16895,.5332,.29688l-.24609,.94141c-.19238-.125-.35107-.21191-.47656-.26172s-.24902-.07422-.37012-.07422c-.14453,0-.25537,.05371-.33252,.16016s-.11523,.24609-.11523,.41797c0,.10645,.01514,.2002,.04639,.2793s.08105,.15625,.14893,.23047c.06836,.07422,.22949,.20801,.48389,.40039,.33594,.25488,.56641,.51074,.69141,.76758,.12451,.25684,.18701,.57129,.18701,.94336Z"/><path d="M7.39412,26.92884h-.86621l-.94238-2.40625-.32227,.36719v2.03906h-.76318v-5.71094h.76318v2.61328l.30029-.67188,.97412-1.94141h.84668l-1.25488,2.52734,1.26465,3.18359Z"/><path d="M10.6241,21.2179v3.69531c0,.42188-.05957,.79199-.17822,1.10938-.11914,.31738-.29102,.56152-.51562,.73047-.2251,.16895-.49072,.25391-.79736,.25391-.46289,0-.82227-.18848-1.07812-.56445s-.38379-.8916-.38379-1.54492v-3.67969h.76025v3.49609c0,.44043,.05615,.7627,.16748,.96875s.2959,.30859,.55371,.30859c.24951,0,.43018-.10352,.54248-.31055s.16895-.53223,.16895-.97461v-3.48828h.76025Z"/><path d="M13.8448,22.99915c0,.61426-.12109,1.08496-.36328,1.41016-.2417,.3252-.58594,.48828-1.03223,.48828h-.32715v2.03125h-.76318v-5.71094h1.14941c.43652,0,.76807,.14941,.99561,.44727,.22705,.29785,.34082,.74316,.34082,1.33398Zm-1.72266,.90625h.25098c.23438,0,.41016-.07324,.52637-.2207,.1167-.14746,.1748-.36133,.1748-.64258,0-.28418-.04883-.49316-.14648-.62891s-.25049-.20312-.45898-.20312h-.34668v1.69531Z"/><path d="M14.37752,26.92884v-5.71094h.76318v5.71094h-.76318Z"/><path d="M19.08699,26.92884h-.96973l-1.56494-4.32031h-.02197c.03076,.7627,.04639,1.30762,.04639,1.63281v2.6875h-.68164v-5.71094h.9624l1.5625,4.27734h.01758c-.0249-.74219-.03711-1.2666-.03711-1.57422v-2.70312h.68652v5.71094Z"/><path d="M22.0489,26.92884l-.26074-1.35938h-1.31152l-.26123,1.35938h-.82178l1.27002-5.73438h.93262l1.2749,5.73438h-.82227Zm-.44287-2.375c-.24121-1.23145-.37695-1.92871-.40723-2.08984s-.05225-.28906-.06543-.38281c-.0542,.33301-.20898,1.15723-.46484,2.47266h.9375Z"/><path d="M25.86873,22.14369c-.28711,0-.50928,.1709-.66699,.51367-.15723,.34277-.23584,.81934-.23584,1.43164,0,1.27344,.30078,1.91016,.90283,1.91016,.25293,0,.55859-.10059,.91797-.30078v1.01562c-.29541,.19531-.625,.29297-.98926,.29297-.52344,0-.92383-.25195-1.20068-.75586-.27734-.50391-.41602-1.22754-.41602-2.16992,0-.59375,.06787-1.11426,.2041-1.56055s.33203-.78906,.58691-1.02734c.25537-.23828,.5542-.35742,.89697-.35742,.34961,0,.70068,.13379,1.05322,.40234l-.24609,.98438c-.13428-.10156-.26953-.19043-.40576-.26562s-.27002-.11328-.40137-.11328Z"/></g></g></g></svg>